<?xml version="1.0" encoding="UTF-8"?>
<svg xmlns="http://www.w3.org/2000/svg" xmlns:xlink="http://www.w3.org/1999/xlink" version="1.1" viewBox="0 0 1000.1 644.6">
  <!-- Generator: Adobe Illustrator 30.5.1, SVG Export Plug-In . SVG Version: 2.1.4 Build 3)  -->
  <defs>
    <style>
      .st0 {
        mask: url(#mask);
      }

      .st1 {
        fill: #a2846a;
      }

      .st2 {
        fill: #9e7f64;
      }

      .st3 {
        fill: #b0bec3;
      }

      .st4 {
        fill: #29286d;
      }

      .st5 {
        fill: #fad5c5;
      }

      .st6 {
        fill: #d2d8d7;
      }

      .st7 {
        fill: #2a424b;
      }

      .st8 {
        fill: #e3e3e3;
      }

      .st9 {
        fill: #d2d2d2;
      }

      .st10 {
        fill: #ddeae8;
      }

      .st11 {
        fill: #f9cec0;
      }

      .st12 {
        fill: #7b502c;
      }

      .st13 {
        stroke: #2a9d8f;
      }

      .st13, .st14 {
        fill: #fff;
      }

      .st15 {
        fill: #2a9d8f;
      }

      .st16 {
        fill: #f66119;
      }

      .st17 {
        fill: #f8cbbc;
      }

      .st18 {
        fill: #d3ccba;
      }

      .st19 {
        fill: #e8e6fb;
      }

      .st20 {
        stroke-miterlimit: 4;
        stroke-width: 15px;
      }

      .st20, .st21, .st22, .st23 {
        fill: none;
        stroke: #f66119;
        stroke-linecap: round;
      }

      .st21 {
        stroke-miterlimit: 4;
        stroke-width: 15px;
      }

      .st22 {
        stroke-miterlimit: 4;
        stroke-width: 15px;
      }

      .st23 {
        stroke-miterlimit: 4;
        stroke-width: 15px;
      }

      .st24 {
        fill: #f9d6c6;
      }

      .st25 {
        fill: #6167ad;
      }

      .st26 {
        fill: #ff9d6d;
      }

      .st27, .st28, .st29 {
        isolation: isolate;
      }

      .st30 {
        mask: url(#mask-2);
      }

      .st31 {
        mask: url(#mask-1);
      }

      .st32 {
        fill: #fad8cb;
      }

      .st33 {
        fill: url(#_名称未設定グラデーション_4);
      }

      .st34 {
        fill: url(#_名称未設定グラデーション_3);
      }

      .st35 {
        mix-blend-mode: multiply;
      }

      .st36 {
        fill: #ffc9b7;
      }

      .st37 {
        fill: #f1eae3;
      }

      .st38 {
        fill: #c9c9c9;
      }

      .st39 {
        fill: #cbd1cc;
      }

      .st40 {
        fill: #d3e1e2;
      }

      .st41 {
        fill: #d2d9db;
      }

      .st42, .st29 {
        fill: #47373e;
      }

      .st43 {
        fill: #1d8578;
      }

      .st28 {
        fill: #112232;
        opacity: 0;
      }

      .st44 {
        fill: #617f88;
      }

      .st45 {
        display: none;
        fill: #48478b;
      }

      .st46 {
        fill: #dae5e7;
      }

      .st47 {
        fill: #dfe4de;
      }

      .st48 {
        fill: #b9baba;
      }

      .st49 {
        fill: #31424c;
      }

      .st50 {
        fill: #4a4a59;
      }

      .st51 {
        fill: #d2dadc;
      }

      .st52 {
        fill: #ccbbad;
      }

      .st53 {
        fill: #f9cdbe;
      }

      .st54 {
        fill: #dee9e7;
      }

      .st55 {
        fill: #d3d6d2;
      }

      .st56 {
        fill: #313a5d;
      }

      .st29 {
        opacity: .5;
      }

      .st57 {
        fill: url(#_名称未設定グラデーション);
      }

      .st58 {
        fill: #ffd96e;
      }

      .st59 {
        fill: #c4dcd9;
      }

      .st60 {
        fill: #dee9e9;
      }

      .st61 {
        fill: #a5c3d9;
      }

      .st62 {
        fill: #8cbcb5;
      }
    </style>
    <mask id="mask" x="548.9" y="564.3" width="122.6" height="71.6" maskUnits="userSpaceOnUse">
      <g id="m111">
        <g id="k110_clippath">
          <path id="k110_SVGID" d="M587,632.7l-31-18c-1.8-1.1-1.8-3.7,0-4.7l67.5-39c1.7-1,3.8-1,5.5,0l31,18c1.8,1.1,1.8,3.7,0,4.7l-67.5,39c-1.7,1-3.8,1-5.5,0Z"/>
        </g>
      </g>
    </mask>
    <mask id="mask-1" x="884.2" y="171.7" width="116.1" height="158.6" maskUnits="userSpaceOnUse">
      <g id="m125">
        <ellipse id="k124_x5F_æ_x9E__xA0_" class="st13" cx="942.2" cy="227.2" rx="57.5" ry="55" transform="translate(-.3 1.4)"/>
      </g>
    </mask>
    <mask id="mask-2" x="883.1" y="171.9" width="112.4" height="155.6" maskUnits="userSpaceOnUse">
      <g id="m128">
        <ellipse id="k127_x5F_æ_x9E__xA0_" class="st13" cx="939.4" cy="226.9" rx="54.5" ry="55.7" transform="translate(699.1589 1162.9576) rotate(-89.1881)"/>
      </g>
    </mask>
    <linearGradient id="_名称未設定グラデーション" data-name="名称未設定グラデーション" x1="-294.4" y1="685.4" x2="-294" y2="672.3" gradientTransform="translate(113.5 971.3) rotate(178.6) scale(1.1 1.2)" gradientUnits="userSpaceOnUse">
      <stop offset="1" stop-color="#1d8578"/>
      <stop offset="1" stop-color="#000"/>
    </linearGradient>
    <linearGradient id="_名称未設定グラデーション_3" data-name="名称未設定グラデーション 3" x1="-274.9" y1="608.3" x2="-274.4" y2="595.2" gradientTransform="translate(80.5 815.2) rotate(178.6) scale(1.3 1)" gradientUnits="userSpaceOnUse">
      <stop offset="0" stop-color="#2a9d8f"/>
      <stop offset="1" stop-color="#000"/>
    </linearGradient>
    <linearGradient id="_名称未設定グラデーション_4" data-name="名称未設定グラデーション 4" x1="-282.1" y1="672.4" x2="-280.3" y2="621.9" gradientTransform="translate(98 724.9) rotate(178.6) scale(1.1 1.1)" gradientUnits="userSpaceOnUse">
      <stop offset="0" stop-color="#000"/>
      <stop offset="1" stop-color="#818181"/>
    </linearGradient>
  </defs>
  <g class="st27">
    <g id="_レイヤー_1" data-name="レイヤー_1">
      <g id="f2_x5F_ç_x9F__xA2_å_x8D__xB0_">
        <path id="f2_x5F_ã_x81__x90_ã_x82__x8B_ã_x81__x90_ã_x82__x8B_ç_x9F__xA2_å_x8D__xB0_" class="st23" d="M671.7,122.8c67.8,15.1,124.4,40.9,161.5,73.2"/>
        <path id="f2_x5F_Polygon_5" class="st16" d="M842.3,202c.6,2-1,4-3.2,3.8l-33.2-3.2c-2.4-.2-3.6-3-2-4.9l23.7-28.7c1.5-1.9,4.5-1.2,5.2,1.1l9.5,31.9Z"/>
      </g>
      <g id="f3_x5F_ç_x9F__xA2_å_x8D__xB0_">
        <path id="f3_x5F_ã_x81__x90_ã_x82__x8B_ã_x81__x90_ã_x82__x8B_ç_x9F__xA2_å_x8D__xB0_" class="st21" d="M848,422c-53.3,44.5-108.3,73.6-156.5,83.3"/>
        <path id="f3_x5F_Polygon_5" class="st16" d="M681.2,508.8c-2-.8-2.6-3.3-1.1-4.9l22.8-24.3c1.6-1.8,4.6-1,5.1,1.4l8.3,36.3c.5,2.3-1.8,4.3-4,3.5l-31.1-12Z"/>
      </g>
      <g id="f4_x5F_ç_x9F__xA2_å_x8D__xB0_">
        <path id="f4_x5F_ã_x81__x90_ã_x82__x8B_ã_x81__x90_ã_x82__x8B_ç_x9F__xA2_å_x8D__xB0_" class="st20" d="M339,506.4c-67.5-16.6-123.4-43.7-159.8-76.9"/>
        <path id="f4_x5F_Polygon_5" class="st16" d="M170.2,423.4c-.6-2.1,1.1-4,3.3-3.8l33.1,4c2.4.3,3.5,3.1,1.9,4.9l-24.3,28.2c-1.6,1.8-4.5,1.1-5.2-1.2l-8.7-32.1Z"/>
      </g>
      <g id="f5_x5F_ç_x9F__xA2_å_x8D__xB0_">
        <path id="f5_x5F_ã_x81__x90_ã_x82__x8B_ã_x81__x90_ã_x82__x8B_ç_x9F__xA2_å_x8D__xB0_" class="st22" d="M174.7,192.7c55-42.5,111-69.4,159.6-77.2"/>
        <path id="f5_x5F_Polygon_5" class="st16" d="M344.7,112.3c2,.8,2.4,3.4.9,4.9l-23.7,23.4c-1.7,1.7-4.6.8-5.1-1.6l-6.9-36.6c-.4-2.4,1.9-4.3,4.1-3.3l30.6,13.2Z"/>
      </g>
      <ellipse id="f6_x5F_æ_x8C__xAF_ã_x82__x8A_è_xBF__x94_ã_x82__x8A_" class="st26" cx="157.6" cy="316.1" rx="120.5" ry="73.5"/>
      <g id="f7_Group">
        <path id="f7_Vector" class="st43" d="M0,245.3l54.4-31.7,1.6-1,8.3-5.2,3.8,71.3c-.8,0-1.5,0-2.2-.4L1.4,251c-1.7-.7-1.2-2.3-1.4-5.7h0Z"/>
        <path id="f7_Vector_2" class="st43" d="M84,195c1.2-.8,2.7-.9,4.1-.3l66.2,25.7c.2,3,.5,4.5-.9,5.3l-26.8,16.8-1.6,1-12.7,8h0s-42.1,26.4-42.1,26.4c-.7.4-1.4.7-2.2.7l-3.8-71.3,19.7-12.4h0Z"/>
        <path id="f7_Vector_3" class="st15" d="M1.4,247.3l64.4,27.3c1.4.6,3.1.5,4.4-.4l42.1-26.4h0s12.7-8,12.7-8l1.6-1,26.8-16.8c1.3-.8,1.2-2.8-.3-3.4l-65.1-27.6c-1.3-.6-2.8-.4-4.1.3l-28,17.6-1.6,1L1,243.4c-1.5,1-1.3,3.2.3,3.9h0Z"/>
        <path id="f7_Vector_4" class="st29" d="M50.7,238.9c.5,8.2,12.8,11.7,27.6,7.8,14.8-3.9,26.4-13.7,26-21.9-.5-8.2-12.8-11.7-27.6-7.8-14.8,3.9-26.4,13.7-26,21.9Z"/>
        <path id="f7_Vector_5" class="st14" d="M50.2,237.5c.5,8.2,12.8,11.7,27.6,7.8,14.8-3.9,26.4-13.7,26-21.9-.5-8.2-12.8-11.7-27.6-7.8-14.8,3.9-26.4,13.7-26,21.9Z"/>
        <path id="f7_Vector_6" class="st15" d="M64,238l13.3-17.2,18.2,5.8-31.5,11.3Z"/>
      </g>
      <path id="f8_Vector" class="st49" d="M140,230.9c2.5,1.4,4.3,4.5,3.7,8.4-.6,4.2-3.1,5.7-5.8,4.9-23.8-7.4-24.6-3.4-40.4-11.2l1.6-15.1c16.2,2.3,28.7,9,40.9,13h0Z"/>
      <path id="f9_Vector" class="st50" d="M116.5,232.2c1.8.7,4.5.2,4.9,4.1.6,5.8-1,10.1-3,10.4-14.4,1.7-12.9,1.1-18.9.2-.7-.1-6.8-1.8-9.9-8.6-1.2-5.4.1-10.1.8-12.3.2-.9,10.2,2.6,11,2.7,6.3.6,5.6,2,15.1,3.6h0Z"/>
      <path id="f10_Vector" class="st7" d="M107.9,189.5c2,3.5,6.7,12,8.5,14.2,2.4-.9,3.2-6,5.6-6.9-3.1-4.9-4-11.3-6.5-15.5-1.8-3-9.7,4.7-7.7,8.1h0Z"/>
      <path id="f11_Vector" class="st49" d="M166.4,258.7c.4,2.9-.6,3.5-2,4.9-2.1,2.1-5.7,2.1-7.6.4-10.8-10.4-6.6-5.4-24.6-22.3,0,0,6.7-12.4,8.5-10.3,9.2,11.1,12.8,16.8,25.6,27.3h0Z"/>
      <path id="f12_Vector" class="st14" d="M116.4,187.3c-.5,4-1.6,15.5-2.1,17.9l-1.1,8.8s3.4,3-5,7.2c-8.5,4.3-15.5-.3-17.6-.5.9-8.7,2.5-7.5.5-15.5l-4.2-7.7c-.3-5.2,1.8-10.3,7.1-13.2l1.4-.7,10.4-5.5c1-.5,2,1,3.1.9,5-.3,7.8,5.5,7.5,8.3Z"/>
      <path id="f13_Vector" class="st24" d="M106.1,178l-9.1,4.9-1.3-8.3,9.6-4,.8,7.4Z"/>
      <path id="f14_Vector" class="st24" d="M106.1,178c0,.3.1,2.3,0,4.3-.3,2.5-2.9,4-5.2,3-1.8-.8-3.6-1.9-4.1-2.7,0,0,8.5-4.5,9.4-4.6Z"/>
      <path id="f15_Vector" class="st7" d="M114.6,201.7c1.1,3.6,10.1,8.7,11,8.7,1.8,0,3.2-1.1,3.7-2.7-1.3-4-2.2-6.8-7.2-10.8-3.7-2.9-8.4,1.8-7.4,4.8Z"/>
      <path id="f16_Vector" class="st43" d="M106.3,206.6l-9.5-24.5c-10.5,4.9-9.8,8.2-10.4,12.1-.2,1.4.1,2.8.9,4l.5,12.2c2,8.1-1.6,10.1,1.2,22.1,2,.3,17.5-2.6,18.2-3"/>
      <path id="f17_Vector" class="st43" d="M113.9,226.7c5.3-2.8,3.8-3.8,3.8-4.1l-1.8-12.9c.4-2.4,1.8-8.1,1.2-19.2s.2-7-.8-8.4c-.6-.8-2.2-3.4-4.8-3.3-2.3.4-5.3-.9-5.3-.9l4.9,28.4"/>
      <path id="f18_Vector" class="st28" d="M94.1,200.7c-1.9,2.6-5.9-3.9-5.6-.7l3.8,7.9c-1,7.4-5.5,11.6-3.3,24.6.9.1,4.4-.8,7.8-.2.2-1.8-1.2-6.7-1.2-8.5,0-5.7,1.7-19.6-1.3-23Z"/>
      <path id="f19_Vector" class="st24" d="M131.2,208.7c-.5,2.5-2.5,1.3-5.1.8-2.7-.5-4.9-.1-4.5-2.6.5-2.5,3-4,5.6-3.5,2.7.5,4.4,2.9,4,5.3Z"/>
      <path id="f20_Vector" class="st43" d="M96.6,200.8c-.2,4.6-5.7,11.9-6.3,15-2.4.3-2.4-6.4-4.8-6.1-.2-5.1,1.2-6.7.8-14.8s10.5,1.3,10.3,5.9h0Z"/>
      <path id="f21_Vector" class="st43" d="M87.2,206.7c3.6.5,19.5,5.8,19.4,6.7-.1,2-1.2,3.7-2.9,4.6-4-.6-13.2-.4-17.7-4.5-.7-.6-2-7.1,1.1-6.7h0Z"/>
      <path id="f22_Vector" class="st50" d="M151.3,262.4c0,1.7-1.6,3.2-2.6,4.7-1.6,2.4-5.7,3.2-6.7,2.3-18.9-15.6-16.2-9.9-31.6-27.9,0,0,14.1-10.6,15.6-8.4,5.1,7.3,12.9,19.1,25.4,29.2Z"/>
      <path id="f23_Vector" class="st39" d="M137.3,220.9l-16.4-7.4c-.3-.2-.7-.2-1.1,0l-26.8,16.4c0,.6,0,1.5.6,1.8l16.3,8.3c0,0,.4,0,.7-.1l26.6-17.3c.3-.2.2-1,.1-1.7h0Z"/>
      <path id="f24_Vector" class="st46" d="M137.1,220.5l-16.3-8.3c-.3-.2-.7-.2-1.1,0l-26.6,17.3c-.3.2-.3.7,0,.8l16.3,8.3c.3.2.6.1.9,0l26.7-17.4c.3-.2.3-.6,0-.8Z"/>
      <path id="f25_Vector" class="st39" d="M116.7,221.2l-4.4-2.3c0,0-.2,0-.3,0l-7.2,4.7c0,0,0,.2,0,.2l4.4,2.3c0,0,.2,0,.3,0l7.2-4.7c0,0,0-.2,0-.2h0Z"/>
      <g id="f26_Group">
        <path id="f26_Vector" class="st18" d="M105.1,231.1l-1.1-.4s0,0,0,0l-1.1.6c0,0,0,.2,0,.2l1,.5s0,0,0,0l1-.7c0,0,0-.2,0-.2h0Z"/>
        <path id="f26_Vector_2" class="st37" d="M105.1,231l-1.1-.5s0,0,0,0l-1.1.7s0,0,0,0l1.1.5s0,0,0,0l1.1-.7s0,0,0,0h0Z"/>
      </g>
      <g id="f27_Group">
        <path id="f27_Vector" class="st18" d="M106.9,230l-1.1-.4s0,0,0,0l-1.1.6c0,0,0,.2,0,.2l1.1.5s0,0,0,0l1.1-.7c0,0,0-.2,0-.2h0Z"/>
        <path id="f27_Vector_2" class="st37" d="M106.9,230l-1.1-.5s0,0,0,0l-1.1.7s0,0,0,0l1.1.5s0,0,0,0l1.1-.7s0,0,0,0h0Z"/>
      </g>
      <g id="f28_Group">
        <path id="f28_Vector" class="st18" d="M108.6,228.9l-1.1-.4s0,0,0,0l-1.1.6c0,0,0,.2,0,.2l1.1.5s0,0,0,0l1.1-.7c0,0,0-.2,0-.2h0Z"/>
        <path id="f28_Vector_2" class="st37" d="M108.6,228.9l-1.1-.5s0,0,0,0l-1.1.7s0,0,0,0l1.1.5s0,0,0,0l1.1-.7s0,0,0,0h0Z"/>
      </g>
      <g id="f29_Group">
        <path id="f29_Vector" class="st18" d="M110.3,227.8l-1.1-.4s0,0,0,0l-1.1.6c0,0,0,.2,0,.2l1.1.5s0,0,0,0l1.1-.7c0,0,0-.2,0-.2h0Z"/>
        <path id="f29_Vector_2" class="st37" d="M110.2,227.8l-1.1-.5s0,0,0,0l-1.1.7s0,0,0,0l1.1.5s0,0,0,0l1.1-.7s0,0,0,0h0Z"/>
      </g>
      <g id="f30_Group">
        <path id="f30_Vector" class="st18" d="M111.9,226.7l-1.1-.4s0,0,0,0l-1.1.6c0,0,0,.2,0,.2l1.1.5s0,0,0,0l1.1-.7c0,0,0-.2,0-.2h0Z"/>
        <path id="f30_Vector_2" class="st37" d="M111.9,226.7l-1.1-.5s0,0,0,0l-1.1.7s0,0,0,0l1.1.5s0,0,0,0l1.1-.7s0,0,0,0h0Z"/>
      </g>
      <g id="f31_Group">
        <path id="f31_Vector" class="st18" d="M113.6,225.6l-1.1-.4s0,0,0,0l-1.1.6c0,0,0,.2,0,.2l1.1.5s0,0,0,0l1.1-.7c0,0,0-.2,0-.2h0Z"/>
        <path id="f31_Vector_2" class="st37" d="M113.6,225.6l-1.1-.5s0,0,0,0l-1.1.7s0,0,0,0l1.1.5s0,0,0,0l1.1-.7s0,0,0,0h0Z"/>
      </g>
      <g id="f32_Group">
        <path id="f32_Vector" class="st18" d="M115.3,224.5l-1.1-.4s0,0,0,0l-1.1.6c0,0,0,.2,0,.2l1.1.5s0,0,0,0l1.1-.7c0,0,0-.2,0-.2h0Z"/>
        <path id="f32_Vector_2" class="st37" d="M115.3,224.5l-1.1-.5s0,0,0,0l-1.1.7s0,0,0,0l1.1.5s0,0,0,0l1.1-.7s0,0,0,0h0Z"/>
      </g>
      <g id="f33_Group">
        <path id="f33_Vector" class="st18" d="M117,223.5l-1.1-.4s0,0,0,0l-1.1.6c0,0,0,.2,0,.2l1.1.5s0,0,0,0l1.1-.7c0,0,0-.2,0-.2h0Z"/>
        <path id="f33_Vector_2" class="st37" d="M116.9,223.4l-1.1-.5s0,0,0,0l-1.1.7s0,0,0,0l1.1.5s0,0,0,0l1.1-.7s0,0,0,0h0Z"/>
      </g>
      <g id="f34_Group">
        <path id="f34_Vector" class="st18" d="M118.6,222.3l-1.1-.4s0,0,0,0l-1.1.6c0,0,0,.2,0,.2l1.1.5s0,0,0,0l1.1-.7c0,0,0-.2,0-.2h0Z"/>
        <path id="f34_Vector_2" class="st37" d="M118.6,222.3l-1.1-.6s0,0,0,0l-1.1.7s0,0,0,0l1.1.6s0,0,0,0l1.1-.7s0,0,0,0h0Z"/>
      </g>
      <g id="f35_Group">
        <path id="f35_Vector" class="st18" d="M120.3,221.3l-1.1-.4s0,0,0,0l-1.1.6c0,0,0,.2,0,.2l1.1.5s0,0,0,0l1.1-.7c0,0,0-.2,0-.2h0Z"/>
        <path id="f35_Vector_2" class="st37" d="M120.3,221.3l-1.1-.5s0,0,0,0l-1.1.7s0,0,0,0l1.1.5s0,0,0,0l1.1-.7s0,0,0,0h0Z"/>
      </g>
      <g id="f36_Group">
        <path id="f36_Vector" class="st18" d="M122,220.2l-1.1-.4s0,0,0,0l-1.1.6c0,0,0,.2,0,.2l1.1.5s0,0,0,0l1.1-.7c0,0,0-.2,0-.2h0Z"/>
        <path id="f36_Vector_2" class="st37" d="M122,220.2l-1.1-.5s0,0,0,0l-1.1.7s0,0,0,0l1.1.5s0,0,0,0l1.1-.7s0,0,0,0h0Z"/>
      </g>
      <g id="f37_Group">
        <path id="f37_Vector" class="st18" d="M123.7,219.1l-1.1-.4s0,0,0,0l-1.1.6c0,0,0,.2,0,.2l1.1.5s0,0,0,0l1.1-.7c0,0,0-.2,0-.2h0Z"/>
        <path id="f37_Vector_2" class="st37" d="M123.7,219.1l-1.1-.6s0,0,0,0l-1.1.7s0,0,0,0l1.1.6s0,0,0,0l1.1-.7s0,0,0,0h0Z"/>
      </g>
      <g id="f38_Group">
        <path id="f38_Vector" class="st18" d="M106.8,231.9l-1.1-.4s0,0,0,0l-1.1.6c0,0,0,.2,0,.2l1.1.5s0,0,0,0l1.1-.7c0,0,0-.2,0-.2h0Z"/>
        <path id="f38_Vector_2" class="st37" d="M106.8,231.8l-1.1-.6s0,0,0,0l-1.1.7s0,0,0,0l1.1.6s0,0,0,0l1.1-.7s0,0,0,0h0Z"/>
      </g>
      <g id="f39_Group">
        <path id="f39_Vector" class="st18" d="M108.5,230.8l-1.1-.4s0,0,0,0l-1.1.6c0,0,0,.2,0,.2l1.1.5s0,0,0,0l1.1-.7c0,0,0-.2,0-.2h0Z"/>
        <path id="f39_Vector_2" class="st37" d="M108.5,230.8l-1.1-.6s0,0,0,0l-1.1.7s0,0,0,0l1.1.6s0,0,0,0l1.1-.7s0,0,0,0h0Z"/>
      </g>
      <g id="f40_Group">
        <path id="f40_Vector" class="st18" d="M110.2,229.7l-1.1-.4s0,0,0,0l-1.1.6c0,0,0,.2,0,.2l1.1.5s0,0,0,0l1.1-.7c0,0,0-.2,0-.2h0Z"/>
        <path id="f40_Vector_2" class="st37" d="M110.2,229.7l-1.1-.6s0,0,0,0l-1.1.7s0,0,0,0l1.1.6s0,0,0,0l1.1-.7s0,0,0,0h0Z"/>
      </g>
      <g id="f41_Group">
        <path id="f41_Vector" class="st18" d="M111.8,228.6l-1.1-.4s0,0,0,0l-1.1.6c0,0,0,.2,0,.2l1.1.5s0,0,0,0l1.1-.7c0,0,0-.2,0-.2h0Z"/>
        <path id="f41_Vector_2" class="st37" d="M111.8,228.6l-1.1-.6s0,0,0,0l-1.1.7s0,0,0,0l1.1.6s0,0,0,0l1.1-.7s0,0,0,0h0Z"/>
      </g>
      <g id="f42_Group">
        <path id="f42_Vector" class="st18" d="M113.5,227.5l-1.1-.4s0,0,0,0l-1.1.6c0,0,0,.2,0,.2l1.1.5s0,0,0,0l1.1-.7c0,0,0-.2,0-.2h0Z"/>
        <path id="f42_Vector_2" class="st37" d="M113.5,227.5l-1.1-.6s0,0,0,0l-1.1.7s0,0,0,0l1.1.6s0,0,0,0l1.1-.7s0,0,0,0h0Z"/>
      </g>
      <g id="f43_Group">
        <path id="f43_Vector" class="st18" d="M115.2,226.4l-1.1-.4s0,0,0,0l-1.1.6c0,0,0,.2,0,.2l1.1.5s0,0,0,0l1.1-.7c0,0,0-.2,0-.2h0Z"/>
        <path id="f43_Vector_2" class="st37" d="M115.2,226.4l-1.1-.6s0,0,0,0l-1.1.7s0,0,0,0l1.1.6s0,0,0,0l1.1-.7s0,0,0,0h0Z"/>
      </g>
      <g id="f44_Group">
        <path id="f44_Vector" class="st18" d="M116.9,225.4l-1.1-.4s0,0,0,0l-1.1.6c0,0,0,.2,0,.2l1.1.5s0,0,0,0l1.1-.7c0,0,0-.2,0-.2h0Z"/>
        <path id="f44_Vector_2" class="st37" d="M116.9,225.3l-1.1-.6s0,0,0,0l-1.1.7s0,0,0,0l1.1.6s0,0,0,0l1.1-.7s0,0,0,0h0Z"/>
      </g>
      <g id="f45_Group">
        <path id="f45_Vector" class="st18" d="M118.6,224.3l-1.1-.4s0,0,0,0l-1.1.6c0,0,0,.2,0,.2l1,.5s0,0,0,0l1-.7c0,0,0-.2,0-.2h0Z"/>
        <path id="f45_Vector_2" class="st37" d="M118.5,224.2l-1.1-.6s0,0,0,0l-1.1.7s0,0,0,0l1.1.6s0,0,0,0l1.1-.7s0,0,0,0h0Z"/>
      </g>
      <g id="f46_Group">
        <path id="f46_Vector" class="st18" d="M120.2,223.2l-1.1-.4s0,0,0,0l-1.1.6c0,0,0,.2,0,.2l1,.5s0,0,0,0l1-.7c0,0,0-.2,0-.2h0Z"/>
        <path id="f46_Vector_2" class="st37" d="M120.2,223.2l-1.1-.6s0,0,0,0l-1.1.7s0,0,0,0l1.1.6s0,0,0,0l1.1-.7s0,0,0,0h0Z"/>
      </g>
      <g id="f47_Group">
        <path id="f47_Vector" class="st18" d="M121.9,222.1l-1.1-.4s0,0,0,0l-1.1.6c0,0,0,.2,0,.2l1,.5s0,0,0,0l1-.7c0,0,0-.2,0-.2h0Z"/>
        <path id="f47_Vector_2" class="st37" d="M121.9,222.1l-1.1-.6s0,0,0,0l-1.1.7s0,0,0,0l1.1.6s0,0,0,0l1.1-.7s0,0,0,0h0Z"/>
      </g>
      <g id="f48_Group">
        <path id="f48_Vector" class="st18" d="M123.6,221l-1.1-.4s0,0,0,0l-1.1.6c0,0,0,.2,0,.2l1,.5s0,0,0,0l1-.7c0,0,0-.2,0-.2h0Z"/>
        <path id="f48_Vector_2" class="st37" d="M123.6,221l-1.1-.6s0,0,0,0l-1.1.7s0,0,0,0l1.1.6s0,0,0,0l1.1-.7s0,0,0,0h0Z"/>
      </g>
      <g id="f49_Group">
        <path id="f49_Vector" class="st18" d="M125.3,219.9l-1.1-.4s0,0,0,0l-1.1.6c0,0,0,.2,0,.2l1,.5s0,0,0,0l1-.7c0,0,0-.2,0-.2h0Z"/>
        <path id="f49_Vector_2" class="st37" d="M125.2,219.9l-1.1-.6s0,0,0,0l-1.1.7s0,0,0,0l1.1.6s0,0,0,0l1.1-.7s0,0,0,0h0Z"/>
      </g>
      <g id="f50_Group">
        <path id="f50_Vector" class="st18" d="M108.4,232.7l-1.1-.4s0,0,0,0l-1.1.6c0,0,0,.2,0,.2l1,.5s0,0,0,0l1-.7c0,0,0-.2,0-.2h0Z"/>
        <path id="f50_Vector_2" class="st37" d="M108.4,232.7l-1.1-.6s0,0,0,0l-1.1.7s0,0,0,0l1.1.6s0,0,0,0l1.1-.7s0,0,0,0h0Z"/>
      </g>
      <g id="f51_Group">
        <path id="f51_Vector" class="st18" d="M110.2,231.6l-1.1-.4s0,0,0,0l-1.1.6c0,0,0,.2,0,.2l1.1.5s0,0,0,0l1.1-.7c0,0,0-.2,0-.2h0Z"/>
        <path id="f51_Vector_2" class="st37" d="M110.1,231.6l-1.1-.6s0,0,0,0l-1.1.7s0,0,0,0l1.1.6s0,0,0,0l1.1-.7s0,0,0,0h0Z"/>
      </g>
      <g id="f52_Group">
        <path id="f52_Vector" class="st18" d="M111.8,230.5l-1.1-.4s0,0,0,0l-1.1.6c0,0,0,.2,0,.2l1.1.5s0,0,0,0l1.1-.7c0,0,0-.2,0-.2h0Z"/>
        <path id="f52_Vector_2" class="st37" d="M111.8,230.5l-1.1-.6s0,0,0,0l-1.1.7s0,0,0,0l1.1.6s0,0,0,0l1.1-.7s0,0,0,0h0Z"/>
      </g>
      <g id="f53_Group">
        <path id="f53_Vector" class="st18" d="M113.5,229.5l-1.1-.4s0,0,0,0l-1.1.6c0,0,0,.2,0,.2l1.1.5s0,0,0,0l1.1-.7c0,0,0-.2,0-.2h0Z"/>
        <path id="f53_Vector_2" class="st37" d="M113.5,229.4l-1.1-.6s0,0,0,0l-1.1.7s0,0,0,0l1.1.6s0,0,0,0l1.1-.7s0,0,0,0h0Z"/>
      </g>
      <g id="f54_Group">
        <path id="f54_Vector" class="st18" d="M115.2,228.4l-1.1-.4s0,0,0,0l-1.1.6c0,0,0,.2,0,.2l1.1.5s0,0,0,0l1.1-.7c0,0,0-.2,0-.2h0Z"/>
        <path id="f54_Vector_2" class="st37" d="M115.2,228.3l-1.1-.6s0,0,0,0l-1.1.7s0,0,0,0l1.1.6s0,0,0,0l1.1-.7s0,0,0,0h0Z"/>
      </g>
      <g id="f55_Group">
        <path id="f55_Vector" class="st18" d="M116.9,227.3l-1.1-.4s0,0,0,0l-1.1.6c0,0,0,.2,0,.2l1.1.5s0,0,0,0l1.1-.7c0,0,0-.2,0-.2h0Z"/>
        <path id="f55_Vector_2" class="st37" d="M116.9,227.3l-1.1-.6s0,0,0,0l-1.1.7s0,0,0,0l1.1.6s0,0,0,0l1.1-.7s0,0,0,0h0Z"/>
      </g>
      <g id="f56_Group">
        <path id="f56_Vector" class="st18" d="M118.6,226.2l-1.1-.4s0,0,0,0l-1.1.6c0,0,0,.2,0,.2l1.1.5s0,0,0,0l1.1-.7c0,0,0-.2,0-.2h0Z"/>
        <path id="f56_Vector_2" class="st37" d="M118.5,226.2l-1.1-.6s0,0,0,0l-1.1.7s0,0,0,0l1.1.6s0,0,0,0l1.1-.7s0,0,0,0h0Z"/>
      </g>
      <g id="f57_Group">
        <path id="f57_Vector" class="st18" d="M120.2,225.1l-1.1-.4s0,0,0,0l-1.1.6c0,0,0,.2,0,.2l1.1.5s0,0,0,0l1.1-.7c0,0,0-.2,0-.2h0Z"/>
        <path id="f57_Vector_2" class="st37" d="M120.2,225.1l-1.1-.6s0,0,0,0l-1.1.7s0,0,0,0l1.1.6s0,0,0,0l1.1-.7s0,0,0,0h0Z"/>
      </g>
      <g id="f58_Group">
        <path id="f58_Vector" class="st18" d="M121.9,224l-1.1-.4s0,0,0,0l-1.1.6c0,0,0,.2,0,.2l1.1.5s0,0,0,0l1.1-.7c0,0,0-.2,0-.2h0Z"/>
        <path id="f58_Vector_2" class="st37" d="M121.9,224l-1.1-.6s0,0,0,0l-1.1.7s0,0,0,0l1.1.6s0,0,0,0l1.1-.7s0,0,0,0h0Z"/>
      </g>
      <g id="f59_Group">
        <path id="f59_Vector" class="st18" d="M123.6,222.9l-1.1-.4s0,0,0,0l-1.1.6c0,0,0,.2,0,.2l1.1.5s0,0,0,0l1.1-.7c0,0,0-.2,0-.2h0Z"/>
        <path id="f59_Vector_2" class="st37" d="M123.6,222.9l-1.1-.6s0,0,0,0l-1.1.7s0,0,0,0l1.1.6s0,0,0,0l1.1-.7s0,0,0,0h0Z"/>
      </g>
      <g id="f60_Group">
        <path id="f60_Vector" class="st18" d="M125.3,221.8l-1.1-.4s0,0,0,0l-1.1.6c0,0,0,.2,0,.2l1.1.5s0,0,0,0l1.1-.7c0,0,0-.2,0-.2h0Z"/>
        <path id="f60_Vector_2" class="st37" d="M125.2,221.8l-1.1-.6s0,0,0,0l-1.1.7s0,0,0,0l1.1.6s0,0,0,0l1.1-.7s0,0,0,0h0Z"/>
      </g>
      <g id="f61_Group">
        <path id="f61_Vector" class="st18" d="M126.9,220.8l-1.1-.4s0,0,0,0l-1.1.6c0,0,0,.2,0,.2l1.1.5s0,0,0,0l1.1-.7c0,0,0-.2,0-.2h0Z"/>
        <path id="f61_Vector_2" class="st37" d="M126.9,220.7l-1.1-.6s0,0,0,0l-1.1.7s0,0,0,0l1.1.6s0,0,0,0l1.1-.7s0,0,0,0h0Z"/>
      </g>
      <g id="f62_Group">
        <path id="f62_Vector" class="st18" d="M110.1,233.6l-1.1-.4s0,0,0,0l-1.1.6c0,0,0,.2,0,.2l1.1.5s0,0,0,0l1.1-.7c0,0,0-.2,0-.2h0Z"/>
        <path id="f62_Vector_2" class="st37" d="M110.1,233.5l-1.1-.6s0,0,0,0l-1.1.7s0,0,0,0l1.1.6s0,0,0,0l1.1-.7s0,0,0,0h0Z"/>
      </g>
      <g id="f63_Group">
        <path id="f63_Vector" class="st18" d="M111.8,232.5l-1.1-.4s0,0,0,0l-1.1.6c0,0,0,.2,0,.2l1.1.5s0,0,0,0l1.1-.7c0,0,0-.2,0-.2h0Z"/>
        <path id="f63_Vector_2" class="st37" d="M111.7,232.4l-1.1-.6s0,0,0,0l-1.1.7s0,0,0,0l1.1.6s0,0,0,0l1.1-.7s0,0,0,0h0Z"/>
      </g>
      <g id="f64_Group">
        <path id="f64_Vector" class="st18" d="M113.4,231.4l-1.1-.4s0,0,0,0l-1.1.6c0,0,0,.2,0,.2l1.1.5s0,0,0,0l1.1-.7c0,0,0-.2,0-.2h0Z"/>
        <path id="f64_Vector_2" class="st37" d="M113.4,231.4l-1.1-.6s0,0,0,0l-1.1.7s0,0,0,0l1.1.6s0,0,0,0l1.1-.7s0,0,0,0h0Z"/>
      </g>
      <g id="f65_Group">
        <path id="f65_Vector" class="st18" d="M115.1,230.3l-1.1-.4s0,0,0,0l-1.1.6c0,0,0,.2,0,.2l1.1.5s0,0,0,0l1.1-.7c0,0,0-.2,0-.2h0Z"/>
        <path id="f65_Vector_2" class="st37" d="M115.1,230.3l-1.1-.6s0,0,0,0l-1.1.7s0,0,0,0l1.1.6s0,0,0,0l1.1-.7s0,0,0,0h0Z"/>
      </g>
      <g id="f66_Group">
        <path id="f66_Vector" class="st18" d="M116.8,229.2l-1.1-.4s0,0,0,0l-1.1.6c0,0,0,.2,0,.2l1.1.5s0,0,0,0l1.1-.7c0,0,0-.2,0-.2h0Z"/>
        <path id="f66_Vector_2" class="st37" d="M116.8,229.2l-1.1-.6s0,0,0,0l-1.1.7s0,0,0,0l1.1.6s0,0,0,0l1.1-.7s0,0,0,0h0Z"/>
      </g>
      <g id="f67_Group">
        <path id="f67_Vector" class="st18" d="M118.5,228.1l-1.1-.4s0,0,0,0l-1.1.6c0,0,0,.2,0,.2l1.1.5s0,0,0,0l1.1-.7c0,0,0-.2,0-.2h0Z"/>
        <path id="f67_Vector_2" class="st37" d="M118.4,228.1l-1.1-.5s0,0,0,0l-1.1.7s0,0,0,0l1.1.5s0,0,0,0l1.1-.7s0,0,0,0h0Z"/>
      </g>
      <g id="f68_Group">
        <path id="f68_Vector" class="st18" d="M120.1,227l-1.1-.4s0,0,0,0l-1.1.6c0,0,0,.2,0,.2l1,.5s0,0,0,0l1-.7c0,0,0-.2,0-.2h0Z"/>
        <path id="f68_Vector_2" class="st37" d="M120.1,227l-1.1-.5s0,0,0,0l-1.1.7s0,0,0,0l1.1.5s0,0,0,0l1.1-.7s0,0,0,0h0Z"/>
      </g>
      <g id="f69_Group">
        <path id="f69_Vector" class="st18" d="M121.8,225.9l-1.1-.4s0,0,0,0l-1.1.6c0,0,0,.2,0,.2l1,.5s0,0,0,0l1-.7c0,0,0-.2,0-.2h0Z"/>
        <path id="f69_Vector_2" class="st37" d="M121.8,225.9l-1.1-.5s0,0,0,0l-1.1.7s0,0,0,0l1.1.5s0,0,0,0l1.1-.7s0,0,0,0h0Z"/>
      </g>
      <g id="f70_Group">
        <path id="f70_Vector" class="st18" d="M123.5,224.8l-1.1-.4s0,0,0,0l-1.1.6c0,0,0,.2,0,.2l1,.5s0,0,0,0l1-.7c0,0,0-.2,0-.2h0Z"/>
        <path id="f70_Vector_2" class="st37" d="M123.5,224.8l-1.1-.5s0,0,0,0l-1.1.7s0,0,0,0l1.1.5s0,0,0,0l1.1-.7s0,0,0,0h0Z"/>
      </g>
      <g id="f71_Group">
        <path id="f71_Vector" class="st18" d="M125.2,223.8l-1.1-.4s0,0,0,0l-1.1.6c0,0,0,.2,0,.2l1,.5s0,0,0,0l1-.7c0,0,0-.2,0-.2h0Z"/>
        <path id="f71_Vector_2" class="st37" d="M125.2,223.7l-1.1-.5s0,0,0,0l-1.1.7s0,0,0,0l1.1.5s0,0,0,0l1.1-.7s0,0,0,0h0Z"/>
      </g>
      <g id="f72_Group">
        <path id="f72_Vector" class="st18" d="M126.9,222.7l-1.1-.4s0,0,0,0l-1.1.6c0,0,0,.2,0,.2l1,.5s0,0,0,0l1-.7c0,0,0-.2,0-.2h0Z"/>
        <path id="f72_Vector_2" class="st37" d="M126.8,222.6l-1.1-.5s0,0,0,0l-1.1.7s0,0,0,0l1.1.5s0,0,0,0l1.1-.7s0,0,0,0h0Z"/>
      </g>
      <g id="f73_Group">
        <path id="f73_Vector" class="st18" d="M128.5,221.6l-1.1-.4s0,0,0,0l-1.1.6c0,0,0,.2,0,.2l1,.5s0,0,0,0l1-.7c0,0,0-.2,0-.2h0Z"/>
        <path id="f73_Vector_2" class="st37" d="M128.5,221.6l-1.1-.5s0,0,0,0l-1.1.7s0,0,0,0l1.1.5s0,0,0,0l1.1-.7s0,0,0,0h0Z"/>
      </g>
      <g id="f74_Group">
        <path id="f74_Vector" class="st18" d="M111.8,234.4l-1.1-.4s0,0,0,0l-1.1.6c0,0,0,.2,0,.2l1.1.5s0,0,0,0l1.1-.7c0,0,0-.2,0-.2h0Z"/>
        <path id="f74_Vector_2" class="st37" d="M111.7,234.3l-1.1-.5s0,0,0,0l-1.1.7s0,0,0,0l1.1.5s0,0,0,0l1.1-.7s0,0,0,0h0Z"/>
      </g>
      <g id="f75_Group">
        <path id="f75_Vector" class="st18" d="M113.4,233.3l-1.1-.4s0,0,0,0l-1.1.6c0,0,0,.2,0,.2l1.1.5s0,0,0,0l1.1-.7c0,0,0-.2,0-.2h0Z"/>
        <path id="f75_Vector_2" class="st37" d="M113.4,233.3l-1.1-.5s0,0,0,0l-1.1.7s0,0,0,0l1.1.5s0,0,0,0l1.1-.7s0,0,0,0h0Z"/>
      </g>
      <g id="f76_Group">
        <path id="f76_Vector" class="st18" d="M115.1,232.2l-1.1-.4s0,0,0,0l-1.1.6c0,0,0,.2,0,.2l1.1.5s0,0,0,0l1.1-.7c0,0,0-.2,0-.2h0Z"/>
        <path id="f76_Vector_2" class="st37" d="M115.1,232.2l-1.1-.5s0,0,0,0l-1.1.7s0,0,0,0l1.1.5s0,0,0,0l1.1-.7s0,0,0,0h0Z"/>
      </g>
      <g id="f77_Group">
        <path id="f77_Vector" class="st18" d="M116.8,231.1l-1.1-.4s0,0,0,0l-1.1.6c0,0,0,.2,0,.2l1.1.5s0,0,0,0l1.1-.7c0,0,0-.2,0-.2h0Z"/>
        <path id="f77_Vector_2" class="st37" d="M116.8,231.1l-1.1-.5s0,0,0,0l-1.1.7s0,0,0,0l1.1.5s0,0,0,0l1.1-.7s0,0,0,0h0Z"/>
      </g>
      <g id="f78_Group">
        <path id="f78_Vector" class="st18" d="M118.5,230l-1.1-.4s0,0,0,0l-1.1.6c0,0,0,.2,0,.2l1.1.5s0,0,0,0l1.1-.7c0,0,0-.2,0-.2h0Z"/>
        <path id="f78_Vector_2" class="st37" d="M118.5,230l-1.1-.5s0,0,0,0l-1.1.7s0,0,0,0l1.1.5s0,0,0,0l1.1-.7s0,0,0,0h0Z"/>
      </g>
      <g id="f79_Group">
        <path id="f79_Vector" class="st18" d="M120.1,228.9l-1.1-.4s0,0,0,0l-1.1.6c0,0,0,.2,0,.2l1.1.5s0,0,0,0l1.1-.7c0,0,0-.2,0-.2h0Z"/>
        <path id="f79_Vector_2" class="st37" d="M120.1,228.9l-1.1-.5s0,0,0,0l-1.1.7s0,0,0,0l1.1.5s0,0,0,0l1.1-.7s0,0,0,0h0Z"/>
      </g>
      <g id="f80_Group">
        <path id="f80_Vector" class="st18" d="M121.8,227.9l-1.1-.4s0,0,0,0l-1.1.6c0,0,0,.2,0,.2l1.1.5s0,0,0,0l1.1-.7c0,0,0-.2,0-.2h0Z"/>
        <path id="f80_Vector_2" class="st37" d="M121.8,227.8l-1.1-.5s0,0,0,0l-1.1.7s0,0,0,0l1.1.5s0,0,0,0l1.1-.7s0,0,0,0h0Z"/>
      </g>
      <g id="f81_Group">
        <path id="f81_Vector" class="st18" d="M123.5,226.8l-1.1-.4s0,0,0,0l-1.1.6c0,0,0,.2,0,.2l1.1.5s0,0,0,0l1.1-.7c0,0,0-.2,0-.2h0Z"/>
        <path id="f81_Vector_2" class="st37" d="M123.5,226.7l-1.1-.5s0,0,0,0l-1.1.7s0,0,0,0l1.1.5s0,0,0,0l1.1-.7s0,0,0,0h0Z"/>
      </g>
      <g id="f82_Group">
        <path id="f82_Vector" class="st18" d="M125.2,225.7l-1.1-.4s0,0,0,0l-1.1.6c0,0,0,.2,0,.2l1.1.5s0,0,0,0l1.1-.7c0,0,0-.2,0-.2h0Z"/>
        <path id="f82_Vector_2" class="st37" d="M125.2,225.7l-1.1-.5s0,0,0,0l-1.1.7s0,0,0,0l1.1.5s0,0,0,0l1.1-.7s0,0,0,0h0Z"/>
      </g>
      <g id="f83_Group">
        <path id="f83_Vector" class="st18" d="M126.9,224.6l-1.1-.4s0,0,0,0l-1.1.6c0,0,0,.2,0,.2l1.1.5s0,0,0,0l1.1-.7c0,0,0-.2,0-.2h0Z"/>
        <path id="f83_Vector_2" class="st37" d="M126.8,224.6l-1.1-.5s0,0,0,0l-1.1.7s0,0,0,0l1.1.5s0,0,0,0l1.1-.7s0,0,0,0h0Z"/>
      </g>
      <g id="f84_Group">
        <path id="f84_Vector" class="st18" d="M128.5,223.5l-1.1-.4s0,0,0,0l-1.1.6c0,0,0,.2,0,.2l1.1.5s0,0,0,0l1.1-.7c0,0,0-.2,0-.2h0Z"/>
        <path id="f84_Vector_2" class="st37" d="M128.5,223.5l-1.1-.5s0,0,0,0l-1.1.7s0,0,0,0l1.1.5s0,0,0,0l1.1-.7s0,0,0,0h0Z"/>
      </g>
      <g id="f85_Group">
        <path id="f85_Vector" class="st18" d="M130.2,222.4l-1.1-.4s0,0,0,0l-1.1.6c0,0,0,.2,0,.2l1.1.5s0,0,0,0l1.1-.7c0,0,0-.2,0-.2h0Z"/>
        <path id="f85_Vector_2" class="st37" d="M130.2,222.4l-1.1-.5s0,0,0,0l-1.1.7s0,0,0,0l1.1.5s0,0,0,0l1.1-.7s0,0,0,0h0Z"/>
      </g>
      <g id="f86_Group">
        <path id="f86_Vector" class="st18" d="M113.3,235.2l-1.1-.4s0,0,0,0l-1.1.6c0,0,0,.2,0,.2l1.1.5s0,0,0,0l1.1-.7c0,0,0-.2,0-.2h0Z"/>
        <path id="f86_Vector_2" class="st37" d="M113.3,235.2l-1.1-.6s0,0,0,0l-1.1.7s0,0,0,0l1.1.6s0,0,0,0l1.1-.7s0,0,0,0h0Z"/>
      </g>
      <g id="f87_Group">
        <path id="f87_Vector" class="st18" d="M115,234.1l-1.1-.4s0,0,0,0l-1.1.6c0,0,0,.2,0,.2l1.1.5s0,0,0,0l1.1-.7c0,0,0-.2,0-.2h0Z"/>
        <path id="f87_Vector_2" class="st37" d="M115,234.1l-1.1-.6s0,0,0,0l-1.1.7s0,0,0,0l1.1.6s0,0,0,0l1.1-.7s0,0,0,0h0Z"/>
      </g>
      <g id="f88_Group">
        <path id="f88_Vector" class="st18" d="M116.7,233l-1.1-.4s0,0,0,0l-1.1.6c0,0,0,.2,0,.2l1.1.5s0,0,0,0l1.1-.7c0,0,0-.2,0-.2h0Z"/>
        <path id="f88_Vector_2" class="st37" d="M116.7,233l-1.1-.6s0,0,0,0l-1.1.7s0,0,0,0l1.1.6s0,0,0,0l1.1-.7s0,0,0,0h0Z"/>
      </g>
      <g id="f89_Group">
        <path id="f89_Vector" class="st18" d="M118.4,231.9l-1.1-.4s0,0,0,0l-1.1.6c0,0,0,.2,0,.2l1.1.5s0,0,0,0l1.1-.7c0,0,0-.2,0-.2h0Z"/>
        <path id="f89_Vector_2" class="st37" d="M118.4,231.9l-1.1-.6s0,0,0,0l-1.1.7s0,0,0,0l1.1.6s0,0,0,0l1.1-.7s0,0,0,0h0Z"/>
      </g>
      <g id="f90_Group">
        <path id="f90_Vector" class="st18" d="M120.1,230.8l-1.1-.4s0,0,0,0l-1.1.6c0,0,0,.2,0,.2l1.1.5s0,0,0,0l1.1-.7c0,0,0-.2,0-.2h0Z"/>
        <path id="f90_Vector_2" class="st37" d="M120,230.8l-1.1-.6s0,0,0,0l-1.1.7s0,0,0,0l1.1.6s0,0,0,0l1.1-.7s0,0,0,0h0Z"/>
      </g>
      <g id="f91_Group">
        <path id="f91_Vector" class="st18" d="M121.7,229.8l-1.1-.4s0,0,0,0l-1.1.6c0,0,0,.2,0,.2l1,.5s0,0,0,0l1-.7c0,0,0-.2,0-.2h0Z"/>
        <path id="f91_Vector_2" class="st37" d="M121.7,229.7l-1.1-.6s0,0,0,0l-1.1.7s0,0,0,0l1.1.6s0,0,0,0l1.1-.7s0,0,0,0h0Z"/>
      </g>
      <g id="f92_Group">
        <path id="f92_Vector" class="st18" d="M123.4,228.7l-1.1-.4s0,0,0,0l-1.1.6c0,0,0,.2,0,.2l1,.5s0,0,0,0l1-.7c0,0,0-.2,0-.2h0Z"/>
        <path id="f92_Vector_2" class="st37" d="M123.4,228.6l-1.1-.6s0,0,0,0l-1.1.7s0,0,0,0l1.1.6s0,0,0,0l1.1-.7s0,0,0,0h0Z"/>
      </g>
      <g id="f93_Group">
        <path id="f93_Vector" class="st18" d="M125.1,227.6l-1.1-.4s0,0,0,0l-1.1.6c0,0,0,.2,0,.2l1,.5s0,0,0,0l1-.7c0,0,0-.2,0-.2h0Z"/>
        <path id="f93_Vector_2" class="st37" d="M125.1,227.6l-1.1-.6s0,0,0,0l-1.1.7s0,0,0,0l1.1.6s0,0,0,0l1.1-.7s0,0,0,0h0Z"/>
      </g>
      <g id="f94_Group">
        <path id="f94_Vector" class="st18" d="M126.8,226.5l-1.1-.4s0,0,0,0l-1.1.6c0,0,0,.2,0,.2l1,.5s0,0,0,0l1-.7c0,0,0-.2,0-.2h0Z"/>
        <path id="f94_Vector_2" class="st37" d="M126.8,226.5l-1.1-.6s0,0,0,0l-1.1.7s0,0,0,0l1.1.6s0,0,0,0l1.1-.7s0,0,0,0h0Z"/>
      </g>
      <g id="f95_Group">
        <path id="f95_Vector" class="st18" d="M128.4,225.4l-1.1-.4s0,0,0,0l-1.1.6c0,0,0,.2,0,.2l1,.5s0,0,0,0l1-.7c0,0,0-.2,0-.2h0Z"/>
        <path id="f95_Vector_2" class="st37" d="M128.4,225.4l-1.1-.6s0,0,0,0l-1.1.7s0,0,0,0l1.1.6s0,0,0,0l1.1-.7s0,0,0,0h0Z"/>
      </g>
      <g id="f96_Group">
        <path id="f96_Vector" class="st18" d="M130.1,224.3l-1.1-.4s0,0,0,0l-1.1.6c0,0,0,.2,0,.2l1,.5s0,0,0,0l1-.7c0,0,0-.2,0-.2h0Z"/>
        <path id="f96_Vector_2" class="st37" d="M130.1,224.3l-1.1-.6s0,0,0,0l-1.1.7s0,0,0,0l1.1.6s0,0,0,0l1.1-.7s0,0,0,0h0Z"/>
      </g>
      <g id="f97_Group">
        <path id="f97_Vector" class="st18" d="M131.9,223.2l-1.1-.4s0,0,0,0l-1.1.6c0,0,0,.2,0,.2l1.1.5s0,0,0,0l1.1-.7c0,0,0-.2,0-.2h0Z"/>
        <path id="f97_Vector_2" class="st37" d="M131.9,223.2l-1.1-.6s0,0,0,0l-1.1.7s0,0,0,0l1.1.6s0,0,0,0l1.1-.7s0,0,0,0h0Z"/>
      </g>
      <path id="f98_Vector" class="st24" d="M101.6,219.8c-1.1,2.7,2,3,5.5,4.4,3.4,1.4,5.9,3.4,7,.7,1.1-2.7-.8-6-4.2-7.4-3.4-1.4-7.1-.3-8.2,2.4Z"/>
      <path id="f99_Vector" class="st39" d="M137,221.7v-20.6c-.5-.2-1.2-.4-1.7-.1l-25.9,16.8c-.5.3-.7.8-.7,1.4l.5,19.9c0,.3,0,.8.6,1,.2,0,.4,0,.6,0l26.6-18.2h0Z"/>
      <path id="f100_Vector" class="st46" d="M137.9,221.3l-.5-19.9c0-.4-.4-.6-.7-.4l-26.4,17.2c-.4.3-.6.7-.6,1.2l.5,19.3c0,.6.7,1,1.2.7l25.9-16.8c.4-.3.7-.7.7-1.2h0Z"/>
      <path id="f101_Vector" class="st48" d="M153.6,268.7c-7.4,7.4-8.6,6.8-10.4,5.2-4.2-3.8,1.7-8.4,4.7-12.9,10.6-15.9,12,1.4,5.8,7.7Z"/>
      <path id="f102_Vector" class="st48" d="M170.3,264.7c-8.2,7.9-9.6,4.6-11.2,2.8-3-3.3,2.6-6.4,6-11.2,12.2-17,12.1,1.8,5.2,8.4Z"/>
      <path id="f103_Vector" class="st42" d="M109.1,167.8c-1.3-2.2-2.8-4.1-7-4.2-7.4-.1-8,5.2-8.1,6.7-.7,6.1,7,12,11.2,8.9,1.2-.9,4.3-2.1,4.8-5.3.2-1.2.5-3.9-.8-6h0Z"/>
      <path id="f104_Vector" class="st36" d="M109.2,175.6c-.3,4.6-4.5,8-6.9,7.9-3.5,0-6.1-4.1-5.8-8.8.3-4.6,3.4-8.2,6.9-7.9,3.5.2,6.1,4.1,5.8,8.8Z"/>
      <path id="f105_Vector" class="st36" d="M97.8,176.2c0,1-1,1.7-1.5,1.7-.7,0-1.3-.9-1.2-1.8,0-1,.7-1.7,1.5-1.7.7,0,1.3.9,1.2,1.8Z"/>
      <path id="f106_Vector" class="st42" d="M94.8,172.7c-.3,0,5.1,1.9,7.9-.6,2.3-2,3.2-4.7,3.1-4.9-3.6-6.4-9.3,4.9-11,5.5Z"/>
      <ellipse id="f107_x5F_ç·_xB4_ç_xBF__x92_" class="st26" cx="509.1" cy="506" rx="114" ry="69.5"/>
      <g>
        <g id="f108_Group">
          <path id="f108_Vector" class="st60" d="M616.2,638l-67.7-39.2c-4.6-2.7-4.6-9.3,0-11.9l67.7-39.2c4.3-2.5,9.5-2.5,13.8,0l67.7,39.2c4.6,2.7,4.6,9.3,0,11.9l-67.7,39.2c-4.3,2.5-9.5,2.5-13.8,0Z"/>
          <path id="f108_Vector_2" class="st10" d="M630,638l67.7-39.2v4.8l-67.7,39.2v-4.8Z"/>
          <path id="f108_Vector_3" class="st62" d="M616.2,638l-67.7-39.2v4.8l67.7,39.2v-4.8Z"/>
          <path id="f108_Vector_4" class="st10" d="M697.7,603.6c2.3-1.3,3.4-3.6,3.4-6v-4.8c0,2.3-1.1,4.7-3.4,6v4.8Z"/>
          <path id="f108_Vector_5" class="st62" d="M548.5,603.6c-2.3-1.3-3.4-3.6-3.4-6v-4.8c0,2.3,1.1,4.7,3.4,6v4.8Z"/>
          <path id="f108_Vector_6" class="st59" d="M616.2,642.7v-4.8c4.3,2.5,9.5,2.5,13.8,0v4.8c-4.3,2.5-9.5,2.5-13.8,0Z"/>
        </g>
        <path id="f109_SVGID" class="st51" d="M628.9,632.7l31-18c1.8-1.1,1.8-3.7,0-4.7l-67.5-39c-1.7-1-3.8-1-5.5,0l-31,18c-1.8,1.1-1.8,3.7,0,4.7l67.5,39c1.7,1,3.8,1,5.5,0Z"/>
        <g class="st0">
          <g id="f112_Group">
            <path id="f112_Vector" class="st14" d="M640.6,635.9c.1,0,.2,0,.3-.1,0-.1,0-.3-.1-.4l-91.4-52.9c-.1,0-.3,0-.4.1,0,.1,0,.3.1.4l91.4,52.9s0,0,.1,0Z"/>
            <path id="f112_Vector_2" class="st14" d="M647.4,632c.1,0,.2,0,.3-.1,0-.1,0-.3-.1-.4l-91.4-52.9c-.1,0-.3,0-.4.1,0,.1,0,.3.1.4l91.4,52.9s0,0,.1,0Z"/>
            <path id="f112_Vector_3" class="st14" d="M654.3,628c.1,0,.2,0,.3-.1,0-.1,0-.3-.1-.4l-91.4-52.9c-.1,0-.3,0-.4.1,0,.1,0,.3.1.4l91.4,52.9s0,0,.1,0Z"/>
            <path id="f112_Vector_4" class="st14" d="M661.1,624.1c.1,0,.2,0,.3-.1,0-.1,0-.3-.1-.4l-91.4-52.9c-.1,0-.3,0-.4.1,0,.1,0,.3.1.4l91.4,52.9s0,0,.1,0Z"/>
            <path id="f112_Vector_5" class="st14" d="M667.9,620.2c.1,0,.2,0,.3-.1,0-.1,0-.3-.1-.4l-91.4-52.9c-.1,0-.3,0-.4.1,0,.1,0,.3.1.4l91.4,52.9s0,0,.1,0Z"/>
            <path id="f112_Vector_6" class="st14" d="M616.4,632.7c0,0,.1,0,.1,0l54.9-31.7c.1,0,.2-.3.1-.4,0-.1-.3-.2-.4-.1l-54.9,31.7c-.1,0-.2.3-.1.4,0,0,.2.1.3.1Z"/>
            <path id="f112_Vector_7" class="st14" d="M609.4,628.7c0,0,.1,0,.1,0l54.9-31.7c.1,0,.2-.3.1-.4,0-.1-.3-.2-.4-.1l-54.9,31.7c-.1,0-.2.3-.1.4,0,0,.2.1.3.1Z"/>
            <path id="f112_Vector_8" class="st14" d="M602.5,624.7c0,0,.1,0,.1,0l54.9-31.7c.1,0,.2-.3.1-.4,0-.1-.3-.2-.4-.1l-54.9,31.7c-.1,0-.2.3-.1.4,0,0,.2.1.3.1Z"/>
            <path id="f112_Vector_9" class="st14" d="M595.5,620.7s.1,0,.1,0l54.9-31.7c.1,0,.2-.3.1-.4,0-.1-.3-.2-.4-.1l-54.9,31.7c-.1,0-.2.3-.1.4,0,0,.2.1.3.1Z"/>
            <path id="f112_Vector_10" class="st14" d="M588.6,616.6s.1,0,.1,0l54.9-31.7c.1,0,.2-.3.1-.4,0-.1-.3-.2-.4-.1l-54.9,31.7c-.1,0-.2.3-.1.4,0,0,.2.1.3.1Z"/>
            <path id="f112_Vector_11" class="st14" d="M581.7,612.6c0,0,.1,0,.1,0l54.9-31.7c.1,0,.2-.3.1-.4,0-.1-.3-.2-.4-.1l-54.9,31.7c-.1,0-.2.3-.1.4,0,0,.2.1.3.1Z"/>
            <path id="f112_Vector_12" class="st14" d="M574.7,608.6s.1,0,.1,0l54.9-31.7c.1,0,.2-.3.1-.4,0-.1-.3-.2-.4-.1l-54.9,31.7c-.1,0-.2.3-.1.4,0,0,.2.1.3.1Z"/>
            <path id="f112_Vector_13" class="st14" d="M567.8,604.6c0,0,.1,0,.1,0l54.9-31.7c.1,0,.2-.3.1-.4,0-.1-.3-.2-.4-.1l-54.9,31.7c-.1,0-.2.3-.1.4,0,0,.2.1.3.1Z"/>
            <path id="f112_Vector_14" class="st14" d="M560.9,600.6s.1,0,.1,0l54.9-31.7c.1,0,.2-.3.1-.4,0-.1-.3-.2-.4-.1l-54.9,31.7c-.1,0-.2.3-.1.4,0,0,.2.1.3.1Z"/>
            <path id="f112_Vector_15" class="st14" d="M553.9,596.6c0,0,.1,0,.1,0l54.9-31.7c.1,0,.2-.3.1-.4,0-.1-.3-.2-.4-.1l-54.9,31.7c-.1,0-.2.3-.1.4,0,0,.2.1.3.1Z"/>
          </g>
        </g>
        <g id="f113_Group">
          <g id="f113_Group_2">
            <path id="f113_Vector" class="st12" d="M647.6,554.8c-1,0-1.7.4-1.7.9l.8,23.6c0,.3.4.5.9.5s.9-.2.9-.5l.8-23.6c0-.5-.8-.9-1.7-.9Z"/>
            <path id="f113_Vector_2" class="st12" d="M649.3,555.7c0,.5-.8.9-1.7.9s-1.7-.4-1.7-.9.8-.9,1.7-.9,1.7.4,1.7.9Z"/>
          </g>
          <g id="f113_Group_3">
            <path id="f113_Vector_3" class="st12" d="M646.4,563.2c-1,0-1.7.4-1.7.9l.8,27.8c0,.3.4.5.9.5s.9-.2.9-.5l.8-27.8c0-.5-.8-.9-1.7-.9Z"/>
            <path id="f113_Vector_4" class="st12" d="M648.1,564.1c0,.5-.8.9-1.7.9s-1.7-.4-1.7-.9.8-.9,1.7-.9,1.7.4,1.7.9Z"/>
          </g>
          <g id="f113_Group_4">
            <path id="f113_Vector_5" class="st12" d="M638.1,558.7c-1,0-1.7.4-1.7.9l-3.3,26c0,.3.4.5.9.5s.9-.2.9-.5l4.9-26c0-.5-.8-.9-1.7-.9Z"/>
            <path id="f113_Vector_6" class="st12" d="M639.8,559.6c0,.5-.8.9-1.7.9s-1.7-.4-1.7-.9.8-.9,1.7-.9,1.7.4,1.7.9Z"/>
          </g>
          <g id="f113_Group_5">
            <path id="f113_Vector_7" class="st12" d="M656.1,559.1c1,0,1.7.4,1.7.9l2.4,26.2c0,.3-.4.5-.9.5s-.9-.2-.9-.5l-4-26.2c0-.5.8-.9,1.7-.9h0Z"/>
            <path id="f113_Vector_8" class="st12" d="M654.3,560c0,.5.8.9,1.7.9s1.7-.4,1.7-.9-.8-.9-1.7-.9-1.7.4-1.7.9Z"/>
          </g>
          <path id="f113_Vector_9" class="st12" d="M630.2,563.1v-3c0,5.2,7.6,9.4,16.9,9.4s16.9-4.2,16.9-9.4v3c0,5.2-7.6,9.4-16.9,9.4s-16.9-4.2-16.9-9.4Z"/>
          <path id="f113_Vector_10" class="st52" d="M647.1,569.5c-9.3,0-16.9-4.2-16.9-9.4s7.6-9.4,16.9-9.4,16.9,4.2,16.9,9.4-7.6,9.4-16.9,9.4Z"/>
          <g id="f113_Group_6">
            <g id="f113_Group_7">
              <path id="f113_Vector_11" class="st52" d="M649.2,527.2c0,.3.4.5.9.5s1-.2,1.1-.5c0-.3-.4-.5-.9-.5s-1,.2-1.1.5Z"/>
              <path id="f113_Vector_12" class="st12" d="M647.9,552.9l3.3-25.6c0,.3-.5.5-1.1.5s-1-.2-.9-.5l-3.3,25.6c0,.3.4.5.9.5s1-.2,1.1-.5Z"/>
            </g>
            <path id="f113_Vector_13" class="st2" d="M649,536.8l14,7.2,1.1-9.1s-2.5-4-6.1-5.9c-3.8-2-7.8-1.4-7.8-1.4l-1.1,9.1Z"/>
            <path id="f113_Vector_14" class="st52" d="M650.1,527.7s4-.6,7.8,1.4c3.6,1.9,6.1,5.9,6.1,5.9l1.2-.5s-2.5-4-6.1-5.9c-3.8-2-7.8-1.4-7.8-1.4l-1.2.5h0Z"/>
            <g id="f113_Group_8">
              <path id="f113_Vector_15" class="st52" d="M664.1,535c0,.3.4.5.9.5s1-.2,1.1-.5c0-.3-.4-.5-.9-.5s-1,.2-1.1.5Z"/>
              <path id="f113_Vector_16" class="st12" d="M662.8,560.6l3.3-25.6c0,.3-.5.5-1.1.5s-1-.2-.9-.5l-3.3,25.6c0,.3.4.5.9.5s1-.2,1.1-.5Z"/>
            </g>
          </g>
        </g>
        <g id="f114_Group">
          <path id="f114_Vector" class="st15" d="M630,541.8c.4-2,1.7-5.8,2.7-7.9,1.5-3.1,3.3-6.7,5.1-8.4.5-.5,2.5-.7,3.1.8.9,2.2-.5,4.1-1.9,7.2-1.5,3.4-2.5,6-4.8,10.4-1.4,2.6-4.9.9-4.3-2.1h0Z"/>
          <g id="f114_Group_2">
            <path id="f114_Vector_2" class="st7" d="M655.3,510.4c-.3-1.8-.9-3.4-2.9-4.4,0,0-2.8-3.8-9.3-.6-1.6.8-2.8,3.1-3.1,5.3-.6,3.6-1.7,13,.7,13.9,1.5.6,6.5-.2,6.5-.2l7.2,1.9s1.9-.5,2-3.3c.2-2.9-.3-7.8-1-12.6h0Z"/>
            <path id="f114_Vector_3" class="st11" d="M638.4,525.2c8.2-3.2,13.3-.8,17.7,1.2,1.9.9-5,2.9-6.5,3.2-2.6.6-8,.5-11.1-4.4"/>
            <path id="f114_Vector_4" class="st15" d="M641.4,553.7s1.1,2.6,7.3,2.2c6.2-.4,9.5-5.6,9.5-5.6l-2.5-7.2,2.7-12.5c.3-1.7-.4-3.5-2.3-4.4-1.4-.6-2.8-1.3-4.4-1.8-1,2.5-9.6,2.3-9.3-.6-1.3.3-2.6.6-4,1.2-1.1.4-.7,1.2-.4,2.5.2,1.1.3,2.8.3,2.8,0,0-.7,3.1-1.1,4.1-.6,1.9-.9,3.2,0,5,.4.9,2,3.5,2,3.5l2.1,10.7h0Z"/>
            <path id="f114_Vector_5" class="st11" d="M647.1,519.1c1.3,0,2,.7,2,1.4l.7,4.3c0,.8-1.3,1.4-2.8,1.4s-2.7-.6-2.6-1.4l.7-4.5c0-.7.8-1.2,2.1-1.2h0Z"/>
            <path id="f114_Vector_6" class="st32" d="M647.8,505.8c4.5,0,5.8,3.4,5.8,7.5s-3.5,7-5.3,7.5c-2.2.6-5.6,1.3-7.2-2.9-1-2.5-.3-7,.2-8.7.5-1.5,2.1-3.5,6.6-3.5h0Z"/>
            <path id="f114_Vector_7" class="st7" d="M643.7,509.3s.8,4.1,4.7,5.6c1.1.4,2.6.9,2.6.9,0,0,1.3-.4,1.4,2.1,2-1.6,5.4-9.2,0-11.8,0,0-2.8-3.8-9.3-.6-2,1-3.5,5-2.5,7.9,0,.2.4.2.4,0,.3-1.2,1-3.3,2.6-4h0Z"/>
            <path id="f114_Vector_8" class="st32" d="M651,515.7s0-1.5,1.4-1.3c1.1.2,1.1.9.8,2.2-.3,1.3-1.1,1.9-1.9,1.8-.8,0-.3-2.7-.3-2.7h0Z"/>
          </g>
        </g>
        <g id="f115_Group">
          <g id="f115_Group_2">
            <g id="f115_Group_3">
              <path id="f115_Vector" class="st11" d="M639.1,597.8l.2.4c.3.8.9,1.4,1,2.2,0,1-.3,1.7-1.1,2.1h-1.6c0,.1-2.5,2.2-2.5,2.2-.8.7-2.1,1.2-3.1,1.1-1-.1-1.4-.2-1.9-.8-.6-.8.9-1.5,1.6-1.9.7-.4,2-2.2,2-2.2.4-.4.7-1,1-1.5l.5-1.2,4-.3h0Z"/>
              <path id="f115_Vector_2" class="st11" d="M639.1,597.8c0-.7-1.2-2.3-2.3-2.1-1.1.2-1.8,2-1.7,2.7,0,.7,1.1,1.1,2.2.9,1.1-.2,1.9-.8,1.8-1.5h0Z"/>
            </g>
            <path id="f115_Vector_3" class="st11" d="M636.1,577.6c.9,7.9,1.7,12.5,3.1,20.2-1.4.3-2.8.6-4.1.9-2.5-8.9-4.2-14.8-6.3-23.8l7.4,2.7Z"/>
          </g>
          <g id="f115_Group_4">
            <g id="f115_Group_5">
              <path id="f115_Vector_4" class="st11" d="M626.7,593v.5c.3.9.9,1.7.8,2.6,0,1.1-.6,1.8-1.6,2.1l-1.6.4-2.9,1.7c-.9.7-2.6,1-3.7.7-1-.3-1.2-.4-1.6-1.2-.5-1,1.2-1.6,2-2,.8-.4,2.4-2.2,2.4-2.2.5-.4.9-1,1.2-1.6l.7-1.3,4.2.3h0Z"/>
              <path id="f115_Vector_5" class="st11" d="M626.7,593c0-.7-.9-1.3-2.1-1.3-1.2,0-2.1.6-2.2,1.3,0,.7.9,1.3,2.1,1.3,1.2,0,2.1-.6,2.2-1.3Z"/>
            </g>
            <path id="f115_Vector_6" class="st11" d="M628.2,572.5l-1.5,20.5-4.2-.2-.8-24.4,6.6,4.2Z"/>
          </g>
          <path id="f115_Vector_7" class="st9" d="M658.1,550.4l.4,10.6c0,2.5-1.3,4.8-3.6,5.8l-15.2,4.8c-1.4.4-2.3,1.7-2.4,3.1l-.5,7.9s-13,.7-18.4-6.2c.2-2.7,1.8-6.4,2-9,.2-2.7,1.7-5.2,4.1-6.5l16.6-9.1,17-1.4h0Z"/>
        </g>
        <g id="f116_Group">
          <path id="f116_Vector" class="st12" d="M625.4,554.4c-1.5,0-2.7-.7-2.7-1.5s1.2-1.5,2.7-1.5,2.7.7,2.7,1.5-1.2,1.5-2.7,1.5Z"/>
          <g id="f116_Group_2">
            <path id="f116_Vector_2" class="st12" d="M616.5,575.9c-1.5,0-2.7.7-2.7,1.5l1.2,45.7c0,.5.7.8,1.5.8s1.5-.4,1.5-.8l1.2-45.7c0-.8-1.2-1.5-2.7-1.5h0Z"/>
            <path id="f116_Vector_3" class="st12" d="M616.5,578.9c-1.5,0-2.7-.7-2.7-1.5s1.2-1.5,2.7-1.5,2.7.7,2.7,1.5-1.2,1.5-2.7,1.5Z"/>
          </g>
          <g id="f116_Group_3">
            <path id="f116_Vector_4" class="st12" d="M592.2,561.7c-1.5,0-2.7.7-2.7,1.5l-5.3,42.7c0,.5.7.8,1.5.8s1.5-.4,1.5-.8l7.7-42.7c0-.8-1.2-1.5-2.7-1.5h0Z"/>
            <path id="f116_Vector_5" class="st12" d="M592.2,564.7c-1.5,0-2.7-.7-2.7-1.5s1.2-1.5,2.7-1.5,2.7.7,2.7,1.5-1.2,1.5-2.7,1.5Z"/>
          </g>
          <g id="f116_Group_4">
            <path id="f116_Vector_6" class="st12" d="M648.2,567.7c1.5,0,2.7.7,2.7,1.5l3.8,43.1c0,.5-.7.8-1.5.8s-1.5-.4-1.5-.8l-6.2-43.1c0-.8,1.2-1.5,2.7-1.5h0Z"/>
            <path id="f116_Vector_7" class="st12" d="M648.2,570.7c-1.5,0-2.7-.7-2.7-1.5s1.2-1.5,2.7-1.5,2.7.7,2.7,1.5-1.2,1.5-2.7,1.5Z"/>
          </g>
          <g id="f116_Group_5">
            <path id="f116_Vector_8" class="st52" d="M621.1,543.9c-21.4,0-38.8,9.7-38.8,21.6v1.8c0,11.9,17.4,21.6,38.8,21.6s38.8-9.7,38.8-21.6v-1.8c0-11.9-17.4-21.6-38.8-21.6Z"/>
            <path id="f116_Vector_9" class="st1" d="M621.1,586.5c-21.4,0-38.7-9.6-38.7-21.5s17.3-21.5,38.7-21.5,38.7,9.6,38.7,21.5-17.3,21.5-38.7,21.5Z"/>
          </g>
        </g>
        <g id="f117_Group">
          <g id="f117_Group_2">
            <path id="f117_Vector" class="st32" d="M644.4,546.9s1,.3,1.5.4c.5.2.9.4,1.3.6.8.4,1.5.9,2.2,1.5,0,0,0,0,.1.1.6.5,1,1.1,1.5,1.7.1.1.4.3.3.6,0,0,0,.2-.1.2,0,0,.3.4.2.6,0,.2-.3.3-.6.2,0,0,.2.2.1.4,0,.2-.3.2-.4.2-.1,0-.9-.3-.9-.3,0,0,.2.2.2.3-.3.9-2.2-.6-2.4-.9-.2-.2-.3-.4-.5-.5-.3-.2-.6-.3-.9-.4-.7-.2-1.4-.6-2-1-.6-.4-.7-1.1-1.3-1.5l-2.4-1.4,1.5-2.4,2.5,1.6h0Z"/>
            <path id="f117_Vector_2" class="st15" d="M629.8,542.6c-.1,2.1,12.1,6.1,12.1,6.1,0,0,.6-.5,1.1-1.4.5-.9.5-1.6.5-1.6l-9.7-5.6s-3.8-1-4,2.5h0Z"/>
          </g>
          <path id="f117_Vector_3" class="st15" d="M634.2,543.9c-1.4,2.6-4.9.9-4.3-2.1.4-2,1.7-5.8,2.8-7.9l1.5,10Z"/>
        </g>
        <g id="f118_Group">
          <path id="f118_Vector" class="st32" d="M636.1,544.8s-1.1-.4-1.5-.6c-.5-.2-1-.3-1.5-.4-.9-.2-1.9-.2-2.8-.2,0,0-.1,0-.2,0-.8,0-1.6.3-2.4.4-.2,0-.5,0-.6.3,0,0,0,.2,0,.2,0,0-.5.1-.5.4,0,.2,0,.4.4.5,0,0-.3,0-.4.3,0,.2.1.4.2.4.1,0,.9.3.9.3,0,0-.3,0-.4.2-.4,1,2.2.9,2.6.8.2,0,.5,0,.7,0,.4,0,.7.2,1,.3.7.3,1.5.4,2.3.4.7,0,1.3-.4,2-.4l2.9.4.3-3-3.1-.3h0Z"/>
          <path id="f118_Vector_2" class="st15" d="M658,527.9c1.1,2.1.3,4.1-.7,7.3-1.3,4-3.1,7.6-7.4,14.1-2.5-.2-13.5-.9-13.5-.9,0,0-.3-.6-.2-1.7,0-1,.4-1.8.4-1.8l11.7-.8s1.6-5.6,2.4-7.8c1.1-3.2,2.6-7.2,3.9-8.6,1.2-1.2,2.7-1.4,3.5.1Z"/>
        </g>
        <g id="f119_Group">
          <g id="f119_Group_2">
            <path id="f119_Vector" class="st47" d="M606,558.6l21.3,12.3c.3.2.7.1,1,0l16.1-9.3c.3-.2.3-.4,0-.6l-21.3-12.3c-.3-.2-.7-.1-1,0l-16.1,9.3c-.3.2-.3.4,0,.6Z"/>
            <path id="f119_Vector_2" class="st51" d="M625.2,556.2l5,2.9c.3.1.7.1,1,0l3.4-2c.3-.2.3-.4,0-.6l-5-2.9c-.3-.2-.7-.1-1,0l-3.4,2c-.3.2-.3.4,0,.6Z"/>
            <g id="f119_Group_3">
              <path id="f119_Vector_3" class="st6" d="M619.2,553.7l16.7,9.7c.3.2.2.4,0,.6l-8.5,4.9c-.3.2-.7.2-1,0l-16.7-9.7c-.3-.2-.2-.4,0-.6l8.5-4.9c.3-.2.7-.2,1,0Z"/>
              <path id="f119_Vector_4" class="st7" d="M618.6,554.1l1.2.7-1.4.8-1.2-.7,1.4-.8Z"/>
              <path id="f119_Vector_5" class="st7" d="M617,555l1.2.7-1.4.8-1.2-.7,1.4-.8Z"/>
              <path id="f119_Vector_6" class="st7" d="M615.4,555.9l1.2.7-1.4.8-1.2-.7,1.4-.8Z"/>
              <path id="f119_Vector_7" class="st7" d="M613.9,556.8l1.2.7-1.4.8-1.2-.7,1.4-.8Z"/>
              <path id="f119_Vector_8" class="st7" d="M612.3,557.7l1.2.7-1.4.8-1.2-.7,1.4-.8Z"/>
              <path id="f119_Vector_9" class="st7" d="M620,554.9l1.2.7-1.4.8-1.2-.7,1.4-.8Z"/>
              <path id="f119_Vector_10" class="st7" d="M618.4,555.8l1.2.7-1.4.8-1.2-.7,1.4-.8Z"/>
              <path id="f119_Vector_11" class="st7" d="M616.8,556.7l1.2.7-1.4.8-1.2-.7,1.4-.8Z"/>
              <path id="f119_Vector_12" class="st7" d="M615.2,557.6l1.2.7-1.4.8-1.2-.7,1.4-.8Z"/>
              <path id="f119_Vector_13" class="st7" d="M613.6,558.5l1.2.7-1.4.8-1.2-.7,1.4-.8Z"/>
              <path id="f119_Vector_14" class="st7" d="M621.4,555.7l1.2.7-1.4.8-1.2-.7,1.4-.8Z"/>
              <path id="f119_Vector_15" class="st7" d="M619.8,556.6l1.2.7-1.4.8-1.2-.7,1.4-.8Z"/>
              <path id="f119_Vector_16" class="st7" d="M618.2,557.5l1.2.7-1.4.8-1.2-.7,1.4-.8Z"/>
              <path id="f119_Vector_17" class="st7" d="M616.6,558.4l1.2.7-1.4.8-1.2-.7,1.4-.8Z"/>
              <path id="f119_Vector_18" class="st7" d="M615,559.3l1.2.7-1.4.8-1.2-.7,1.4-.8Z"/>
              <path id="f119_Vector_19" class="st7" d="M622.8,556.5l1.2.7-1.4.8-1.2-.7,1.4-.8Z"/>
              <path id="f119_Vector_20" class="st7" d="M621.2,557.4l1.2.7-1.4.8-1.2-.7,1.4-.8Z"/>
              <path id="f119_Vector_21" class="st7" d="M619.6,558.3l1.2.7-1.4.8-1.2-.7,1.4-.8Z"/>
              <path id="f119_Vector_22" class="st7" d="M618,559.2l1.2.7-1.4.8-1.2-.7,1.4-.8Z"/>
              <path id="f119_Vector_23" class="st7" d="M616.4,560.1l1.2.7-1.4.8-1.2-.7,1.4-.8Z"/>
              <path id="f119_Vector_24" class="st7" d="M622.6,558.2l1.2.7-1.4.8-1.2-.7,1.4-.8Z"/>
              <path id="f119_Vector_25" class="st7" d="M621,559.1l1.2.7-1.4.8-1.2-.7,1.4-.8Z"/>
              <path id="f119_Vector_26" class="st7" d="M619.4,560l1.2.7-1.4.8-1.2-.7,1.4-.8Z"/>
              <path id="f119_Vector_27" class="st7" d="M617.8,560.9l1.2.7-1.4.8-1.2-.7,1.4-.8Z"/>
              <path id="f119_Vector_28" class="st7" d="M624,559l1.2.7-1.4.8-1.2-.7,1.4-.8Z"/>
              <path id="f119_Vector_29" class="st7" d="M622.4,559.9l1.2.7-1.4.8-1.2-.7,1.4-.8Z"/>
              <path id="f119_Vector_30" class="st7" d="M620.8,560.8l1.2.7-1.4.8-1.2-.7,1.4-.8Z"/>
              <path id="f119_Vector_31" class="st7" d="M619.2,561.7l1.2.7-1.4.8-1.2-.7,1.4-.8Z"/>
              <path id="f119_Vector_32" class="st7" d="M625.4,559.8l1.2.7-1.4.8-1.2-.7,1.4-.8Z"/>
              <path id="f119_Vector_33" class="st7" d="M623.8,560.7l1.2.7-1.4.8-1.2-.7,1.4-.8Z"/>
              <path id="f119_Vector_34" class="st7" d="M622.2,561.6l1.2.7-1.4.8-1.2-.7,1.4-.8Z"/>
              <path id="f119_Vector_35" class="st7" d="M620.6,562.5l1.2.7-1.4.8-1.2-.7,1.4-.8Z"/>
              <path id="f119_Vector_36" class="st7" d="M624.2,557.3l5.4,3.1-1.4.8-5.4-3.1,1.4-.8Z"/>
              <path id="f119_Vector_37" class="st7" d="M626.7,560.6l1.2.7-1.4.8-1.2-.7,1.4-.8Z"/>
              <path id="f119_Vector_38" class="st7" d="M625.2,561.5l1.2.7-1.4.8-1.2-.7,1.4-.8Z"/>
              <path id="f119_Vector_39" class="st7" d="M623.6,562.4l1.2.7-1.4.8-1.2-.7,1.4-.8Z"/>
              <path id="f119_Vector_40" class="st7" d="M622,563.3l1.2.7-1.4.8-1.2-.7,1.4-.8Z"/>
              <path id="f119_Vector_41" class="st7" d="M629.7,560.5l1.2.7-1.4.8-1.2-.7,1.4-.8Z"/>
              <path id="f119_Vector_42" class="st7" d="M628.1,561.4l1.2.7-1.4.8-1.2-.7,1.4-.8Z"/>
              <path id="f119_Vector_43" class="st7" d="M626.5,562.3l1.2.7-1.4.8-1.2-.7,1.4-.8Z"/>
              <path id="f119_Vector_44" class="st7" d="M624.9,563.2l1.2.7-1.4.8-1.2-.7,1.4-.8Z"/>
              <path id="f119_Vector_45" class="st7" d="M623.4,564.1l1.2.7-1.4.8-1.2-.7,1.4-.8Z"/>
              <path id="f119_Vector_46" class="st7" d="M631.1,561.3l1.2.7-1.4.8-1.2-.7,1.4-.8Z"/>
              <path id="f119_Vector_47" class="st7" d="M629.5,562.2l1.2.7-1.4.8-1.2-.7,1.4-.8Z"/>
              <path id="f119_Vector_48" class="st7" d="M627.9,563.1l1.2.7-1.4.8-1.2-.7,1.4-.8Z"/>
              <path id="f119_Vector_49" class="st7" d="M626.3,564l1.2.7-1.4.8-1.2-.7,1.4-.8Z"/>
              <path id="f119_Vector_50" class="st7" d="M624.7,564.9l1.2.7-1.4.8-1.2-.7,1.4-.8Z"/>
              <path id="f119_Vector_51" class="st7" d="M632.5,562.1l1.2.7-1.4.8-1.2-.7,1.4-.8Z"/>
              <path id="f119_Vector_52" class="st7" d="M630.9,563l1.2.7-1.4.8-1.2-.7,1.4-.8Z"/>
              <path id="f119_Vector_53" class="st7" d="M629.3,563.9l1.2.7-1.4.8-1.2-.7,1.4-.8Z"/>
              <path id="f119_Vector_54" class="st7" d="M627.7,564.8l1.2.7-1.4.8-1.2-.7,1.4-.8Z"/>
              <path id="f119_Vector_55" class="st7" d="M626.1,565.8l1.2.7-1.4.8-1.2-.7,1.4-.8Z"/>
              <path id="f119_Vector_56" class="st7" d="M633.9,562.9l1.2.7-1.4.8-1.2-.7,1.4-.8Z"/>
              <path id="f119_Vector_57" class="st7" d="M632.3,563.8l1.2.7-1.4.8-1.2-.7,1.4-.8Z"/>
              <path id="f119_Vector_58" class="st7" d="M630.7,564.7l1.2.7-1.4.8-1.2-.7,1.4-.8Z"/>
              <path id="f119_Vector_59" class="st7" d="M629.1,565.6l1.2.7-1.4.8-1.2-.7,1.4-.8Z"/>
              <path id="f119_Vector_60" class="st7" d="M627.5,566.6l1.2.7-1.4.8-1.2-.7,1.4-.8Z"/>
              <path id="f119_Vector_61" class="st7" d="M610.7,558.6l1.2.7-.5.3-1.2-.7.5-.3Z"/>
              <path id="f119_Vector_62" class="st7" d="M612.1,559.4l1.2.7-.5.3-1.2-.7.5-.3Z"/>
              <path id="f119_Vector_63" class="st7" d="M613.5,560.2l1.2.7-.5.3-1.2-.7.5-.3Z"/>
              <path id="f119_Vector_64" class="st7" d="M614.8,561l1.2.7-.5.3-1.2-.7.5-.3Z"/>
              <path id="f119_Vector_65" class="st7" d="M616.2,561.8l1.2.7-.5.3-1.2-.7.5-.3Z"/>
              <path id="f119_Vector_66" class="st7" d="M617.6,562.6l1.2.7-.5.3-1.2-.7.5-.3Z"/>
              <path id="f119_Vector_67" class="st7" d="M619,563.4l1.2.7-.5.3-1.2-.7.5-.3Z"/>
              <path id="f119_Vector_68" class="st7" d="M620.4,564.3l1.2.7-.5.3-1.2-.7.5-.3Z"/>
              <path id="f119_Vector_69" class="st7" d="M621.8,565.1l1.2.7-.5.3-1.2-.7.5-.3Z"/>
              <path id="f119_Vector_70" class="st7" d="M623.2,565.9l1.2.7-.5.3-1.2-.7.5-.3Z"/>
              <path id="f119_Vector_71" class="st7" d="M624.5,566.7l1.2.7-.5.3-1.2-.7.5-.3Z"/>
              <path id="f119_Vector_72" class="st7" d="M625.9,567.5l1.2.7-.5.3-1.2-.7.5-.3Z"/>
            </g>
          </g>
          <path id="f119_Vector_73" class="st51" d="M628.2,571l16.2-9.4v.6l-16.2,9.4v-.6Z"/>
          <path id="f119_Vector_74" class="st44" d="M627.2,571v.6l-21.2-12.3v-.6l21.2,12.3Z"/>
          <path id="f119_Vector_75" class="st3" d="M628.2,571.6c-.3.2-.6.2-.9,0v-.6c.3.2.6.2.9,0v.6Z"/>
          <path id="f119_Vector_76" class="st41" d="M644.4,562.2c.2,0,.2-.2.2-.3h0v-.6h0c0,.1,0,.2-.2.3v.6"/>
          <path id="f119_Vector_77" class="st3" d="M606,559.3c-.2,0-.2-.2-.2-.3h0v-.6h0c0,.1,0,.2.2.3v.6"/>
        </g>
        <g id="f120_Group">
          <path id="f120_Vector" class="st54" d="M627.6,571.3l-21.1-12.2c-.3-.1-.5-.5-.5-.7v-18.1c0-.3.2-.3.5-.2l21.1,12.2c.3.1.5.5.5.7v18.1c0,.3-.2.3-.5.2Z"/>
          <path id="f120_Vector_2" class="st55" d="M628,553l.5-.3v18.1l-.5.3v-18.1Z"/>
          <path id="f120_Vector_3" class="st40" d="M628.1,552c.3.1.5.5.5.7l-.5.3c0-.3-.2-.6-.5-.7l.5-.3Z"/>
          <path id="f120_Vector_4" class="st51" d="M606.9,539.8l21.1,12.2-.5.3-21.1-12.2.5-.3Z"/>
          <path id="f120_Vector_5" class="st55" d="M606.1,540.1c0,0,.2,0,.4,0l.5-.3c-.1,0-.3,0-.4,0l-.5.3h0Z"/>
          <path id="f120_Vector_6" class="st3" d="M628,571.1c0,0,0,.2-.1.2h0s.4-.2.4-.2c0,0,.1-.1.1-.3l-.5.3h0Z"/>
        </g>
        <g id="f121_Group">
          <g id="f121_Group_2">
            <path id="f121_Vector" class="st15" d="M611.9,520.8l6.2-3.6-3.4,9.1-2.8-5.6Z"/>
            <path id="f121_Vector_2" class="st15" d="M611.9,520.8l-1.4-.8,2.8,5.6,1.4.8-2.8-5.6Z"/>
            <path id="f121_Vector_3" class="st15" d="M595.9,506.6l33-19.1c1-.6,2.1.1,2.1,1.2v21.5c0,1-.5,1.8-1.3,2.3l-33.1,19.1c-1,.6-2.1-.1-2.1-1.2v-21.5c0-1,.5-1.8,1.3-2.3h0Z"/>
            <path id="f121_Vector_4" class="st60" d="M629,487.5l-2.4-1.4c.5-.3,1-.2,1.4,0l2.4,1.4c-.4-.2-1-.3-1.4,0h0Z"/>
            <path id="f121_Vector_5" class="st15" d="M594.6,508.9l-2.4-1.4v21.5l2.4,1.4v-21.5Z"/>
            <path id="f121_Vector_6" class="st15" d="M594.6,530.4c0,.6.3,1,.7,1.2l-2.4-1.4c-.4-.2-.7-.7-.7-1.2l2.4,1.4Z"/>
            <path id="f121_Vector_7" class="st15" d="M594.6,508.9l-2.4-1.4c0-1,.5-1.8,1.3-2.3l2.4,1.4c-.8.5-1.3,1.3-1.3,2.3h0Z"/>
            <path id="f121_Vector_8" class="st60" d="M593.5,505.2l2.4,1.4,33-19.1-2.4-1.4-33,19.1Z"/>
          </g>
          <path id="f121_Vector_9" class="st15" d="M628,493.4l-27.7,16-1.6-.9,27.7-16,1.6.9Z"/>
          <path id="f121_Vector_10" class="st14" d="M600.3,509.4l27.7-16v3l-27.7,16v-3Z"/>
          <path id="f121_Vector_11" class="st15" d="M600.3,509.4l-1.6-.9v3l1.6.9v-3Z"/>
          <path id="f121_Vector_12" class="st15" d="M628,500.4l-27.7,16-1.6-.9,27.7-16,1.6.9Z"/>
          <path id="f121_Vector_13" class="st14" d="M600.3,516.4l27.7-16v3l-27.7,16v-3Z"/>
          <path id="f121_Vector_14" class="st15" d="M600.3,516.4l-1.6-.9v3l1.6.9v-3Z"/>
          <path id="f121_Vector_15" class="st15" d="M628,507.3l-13.9,8.1-1.6-.9,13.9-8.1,1.6.9Z"/>
          <path id="f121_Vector_16" class="st14" d="M614,515.4l13.9-8.1v3l-13.9,8.1v-3Z"/>
          <path id="f121_Vector_17" class="st15" d="M614,515.4l-1.6-.9v3l1.6.9v-3Z"/>
        </g>
      </g>
      <ellipse id="f122_x5F_æ_x8C__xAF_ã_x82__x8A_è_xBF__x94_ã_x82__x8A_" class="st26" cx="863.9" cy="310.4" rx="120.5" ry="73.5"/>
      <ellipse id="f123_x5F_æ_x9E__xA0_" class="st13" cx="941.9" cy="227.8" rx="54.3" ry="57.7" transform="translate(687.5736 1162.9248) rotate(-88.3813)"/>
      <g class="st31">
        <g>
          <g id="f126_Group">
            <path id="f126_Vector" class="st43" d="M965,244.7c-1.7-2.4-10.2-7-10.2-7,0,0,5.1,45.4,9.9,48.5,4.8,3.1,8.5-1.9,8.5-1.9,0,0-6.5-37.1-8.3-39.5h0Z"/>
            <g id="f126_Group_2">
              <path id="f126_Vector_2" class="st19" d="M939.8,232.8c-4.7,2.7-11.5,11.6-11.5,11.6l7.3,69,20.7-8.1s3.4-48.2,2.7-53.6-3.6-12.7-8.1-14.8c-4.5-2.1-6.4-7-11.1-4.2h0Z"/>
              <path id="f126_Vector_3" class="st61" d="M950.9,272.4l-2.4-21.1c1.4-2.1.6-5.6-.2-6.6-.7-.8-3.7-3.6-3.7-3.6l-2.9,7,3.9,3.6-3.8,21.2-2.5,35.7,6.6,5.7,5.7-8.8-.7-33.1h0Z"/>
              <path id="f126_Vector_4" class="st15" d="M943.9,235.3s5.6-2.2,9.3-.4c4.7,2.2,5.6,4.6,7.3,9.4,1.7,4.9-1.5,67.6-1.5,67.6l9.8,9.9s-12.9,6.9-18,1.7c-5.1-5.2.5-32.1.5-32.1,0,0,1.8-28.9,2.5-38,.6-18.8-9.9-18-9.9-18h0Z"/>
              <path id="f126_Vector_5" class="st15" d="M914.5,248.7c1.5-4.5,10.2-8.3,10.2-8.3,2.4-2.3,5.3-3.3,9.5-6.5,0,0-1.2,3.2-.3,6.8.5,1.8,5.7,9.5,7.4,16.6,1.7,7.3,1.2,14.9,1.4,21.9.2,5.8.9,20.3.6,29.2-.4,9.9-.2,14.4-.2,14.4,0,0-11.6,9.1-14.8,7.5-8.3-3.9-15.2-11.4-15.2-11.4l1.7-16.7s-1.5-22.2-2.6-33.2c-.4-3.7.9-15.7,2.3-20.2h0Z"/>
              <path id="f126_Vector_6" class="st45" d="M914.3,265.4c1,0,2,0,2.6,0,1.4,0,4.7-2.3,5.8-1.5,1.9,1.5,1.9,10.2,1.3,12.8-.6,2.7-8,10-8.8,9.8l-.9-21.1h0Z"/>
            </g>
            <path id="f126_Vector_7" class="st19" d="M953,247.9l-6.5-1.5.2-10.3s4.7,4.4,4.9,4.8,1.4,7,1.4,7h0Z"/>
            <g id="f126_Group_3">
              <path id="f126_Vector_8" class="st19" d="M945.7,233.4c1.7.7.8,12.8.8,12.8l-6.8,5.4s-8.7-13.6-6.1-17.3,5.8-4.8,5.8-4.8c0,0,5.2,3.4,6.3,3.9Z"/>
              <g id="f126_Group_4">
                <path id="f126_Vector_9" class="st4" d="M957.4,207.1c2.8,2.4.2,9.8-.1,10.8-.3,1-1.9,4-1.9,4,0,0-3.4-4.6-3.4-9.3,0-4.5,4.5-6.3,5.4-5.5Z"/>
                <path id="f126_Vector_10" class="st56" d="M926.7,211c1.6-2.3,5.9.8,7.7,2.4,2.8,2.4.9,13.2.9,13.2-1.7,2.5-11.7-11.2-8.6-15.6h0Z"/>
                <path id="f126_Vector_11" class="st53" d="M949.7,231.1c-.9,2.3-2,4-2.4,7-.4,2.9-.7,5.3-.7,5.3,0,0-5.6,0-8.8-1.7-2.1-1.2-3.1-6.9-2.9-7.6,1.1-3.7,0-4.7-.7-7.9-2-8,13,.4,15.4,4.8h0Z"/>
                <path id="f126_Vector_12" class="st5" d="M942.1,234.2c2.7.5,4.1,1.1,6.8,0s6-8.4,6.3-10.1c.3-1.7.3-6.5.3-6.5,0,0,.6-3.2.7-4.6,1.1-11.5-9-18-19-14.8-12.7,4.1-4.3,16.6-4.1,25.3,0,2.8,1.8,5.4,2.8,6.9,1.1,1.5,3.5,3.1,6.3,3.7h0Z"/>
                <path id="f126_Vector_13" class="st4" d="M926.9,207c-1.7-3.3,1.6-6.8,5.5-9.2,3.5-2.8,10.8-3.4,14.7-2.3,1.9.6,5.6,1.2,7.6,5.7,2,4.5-2.3,9.2-2.3,9.2,0,0-.8,2.4-4.2,2.6-3.4.2-4.9-2.1-4.9-2.1l-2.8.9s-3.8,1.1-3.5,3.4c.3,2.4-1.1,5.1-1.3,6.2-.2,1-4.8-7.8-5-4.1-.9.2-2.8,3.5-4.2-1.6-.8-2.8-2.5-4.8.3-8.6Z"/>
                <path id="f126_Vector_14" class="st4" d="M952.7,199.1c-2.9-1.2-3.4,2-4.7,3.7l4.3,6s-.7,1.7.9,4c1.6,2.3,4,0,4,0,0,0,3.2-1.6,2.1-6.3-.8-3.9-3.8-6-6.7-7.2h0Z"/>
                <path id="f126_Vector_15" class="st5" d="M930.9,215.3c-2.3.5-1.7,3-.2,6.6.2.4,2.2,3.6,2.9,3.4,1-.3.2-4.7.1-5.3-.2-2.5-.5-5.1-2.9-4.7h0Z"/>
              </g>
            </g>
          </g>
          <g class="st30">
            <g id="f129_Group">
              <path id="f129_Vector" class="st43" d="M927.1,270.4c.6,9.3-5.7,26.8-5.7,26.8,0,0,9.7,18.4,7.2,17.4-1.4-.6-14.4-8.1-17.8-14.5-3.5-6.4,2.1-39.9,7.6-44,3.6-2.7,8.1,5,8.7,14.3h0Z"/>
              <path id="f129_Vector_2" class="st15" d="M925.2,260.6c.6,9.3-6.9,37.8-6.9,37.8,0,0,16.2,22.6,16.3,24,0,1.4-5.2,5.9-7.8,4.9-1.4-.6-16.5-19.5-20-25.9-3.5-6.4,3.1-45.3,7.4-50.7,4.3-5.4,10.3.5,10.9,9.8h0Z"/>
            </g>
          </g>
        </g>
      </g>
      <ellipse id="f130_x5F_ç·_xB4_ç_xBF__x92_" class="st26" cx="509.1" cy="111" rx="114" ry="69.5"/>
      <g>
        <g id="f131_Group">
          <path id="f131_Vector" class="st17" d="M398.5,87.1s-.3.4.4,1.7c.7,1.4,1.7,2,3,3.4,2.5,2.8,2.4,7.7,1.2,8.6-1.2.9-1.5-3.6-2.1-4.3-1-1.1,0,1.5.3,2.8.3,1.3-2.6,1.6-6.2,1.7-3.6,0-4.2.7-5.1-3.7-.6-2.8-.5-4.1.6-6,1.2-1.9,1.2-5.1,1.2-5.1l6.6.8h0Z"/>
          <path id="f131_Vector_2" class="st17" d="M396.9,103.8s-1.3-3.4,0-4.1c1.4-.7,2.5,1.3,2.9,2.8.4,1.5,1.9,5.9.6,6.1-1.3.2-2.8-2.8-3.5-4.8h0Z"/>
          <path id="f131_Vector_3" class="st17" d="M394,103.6s-1.3-3.4,0-4.1c1.4-.7,2.5,1.3,2.9,2.8.4,1.5,1.9,5.9.6,6.1-1.3.2-2.8-2.8-3.5-4.8h0Z"/>
          <path id="f131_Vector_4" class="st17" d="M391.3,102.4s-1.2-3.1,0-3.7c1.2-.6,2.3,1.2,2.6,2.5.3,1.3,1.7,5.3.5,5.5-1.2.2-2.5-2.5-3.2-4.3Z"/>
          <path id="f131_Vector_5" class="st17" d="M398.9,102.2s-1.3-3.4,0-4.1c1.4-.7,2.5,1.3,2.9,2.8.4,1.5,1.9,5.9.6,6.1-1.3.2-2.8-2.8-3.5-4.8h0Z"/>
        </g>
        <path id="f132_Vector" class="st43" d="M394.7,37.4s2.9,3.9,3.8,10.4c.9,6.6,1.4,17.2-.6,19.5-2,2.2-6.7,1-8.4-.6-1.7-1.5-4.6-16.6-4.3-19.3.3-2.6,3.3-11.6,9.4-10.1h0Z"/>
        <path id="f133_Vector" class="st43" d="M391.4,88.9c-2.2-5-3.2-17.1-3.6-21.6-.4-4.5.2-7.9,2.1-8.7,1.9-.9,6.8-2.6,8.8,5.3,2,7.8.7,24.7.7,24.7,0,0-.9.6-3.5,1-2.6.4-4.5-.6-4.5-.6Z"/>
        <path id="f134_Vector" class="st17" d="M393.6,172.1s.5-19.5-1-29.9c-1.5-10.3,2.7-27.3,2.7-27.3l12.2.6s-5.1,45.3-4.1,55.4c1,10-9.8,1.1-9.8,1.1Z"/>
        <path id="f135_Vector" class="st17" d="M395.4,168.4s.3,4-.6,6.2c-.6,1.5.9,2.5,1.7,3.3,1.7,1.8,2,1.8,3.3,4.2,1.3,2.4,6.2,3.2,9.9,2.3,3.7-.8,6.4-1.9,4.9-3.8-1.5-1.8-6.2-1.9-8.7-5-2.1-2.7-3.5-6-3.5-6l-7-1.3h0Z"/>
        <path id="f136_Vector" class="st57" d="M408.1,178s4.2,1.2,6.1,2.1c1.8.8,2.4,3.3,1.5,4.3-.9,1-5.3,2.7-11.1,2.5-2.9,0-5.9-1.7-6.8-3.7-.9-2-2.5-3.7-3.1-2.7-.5,1-.3,3.7-.3,3.7,0,0-1.6.5-2.1-.2,0,0,.3-4,0-6.1-.3-2,.9-6.3.9-6.3,0,0,2.8-.7,4.2,2.7.8,1.9,1,2.9,2.9,4.4,1.9,1.5,4,2.1,5.6,1.8.6-.1,2.1-.9,2-2.7h0Z"/>
        <path id="f138_Vector" class="st38" d="M387.3,77.5s-6,15.1,2.2,26.4c8.3,11.3,2.6,21.2,2.6,23.6,0,2.5-1.9,16-1.6,20.8.3,4.9,2.1,20.4,2.1,20.4,0,0,7.5,3.2,11.9.1,0,0,8.2-46.4,8.4-50.8.2-4.4-3.5-36.9-3.5-36.9l-22.1-3.7h0Z"/>
        <g id="f139_Group">
          <path id="f139_Vector" class="st17" d="M405.6,179.3s.3-19.7-1-30.1c-1.3-10.4,2.2-27.5,2.2-27.5l10.5.7s-4.2,45.7-3.3,55.8c.9,10.1-8.4,1.1-8.4,1.1Z"/>
          <path id="f139_Vector_2" class="st17" d="M405.6,177s.4,3.6-.7,5.7c-.7,1.4,1.1,2.3,2,3.1,2.1,1.7,2.3,1.6,3.9,3.8,1.6,2.2,7.4,2.9,11.8,2.1,4.5-.8,7.7-1.8,5.9-3.5-1.8-1.7-7.5-1.7-10.3-4.5-2.5-2.5-4.2-5.5-4.2-5.5l-8.4-1.2h0Z"/>
          <path id="f139_Vector_3" class="st34" d="M423.2,186.1s5.1,1,7.4,1.8c2.2.7,2.9,2.9,1.8,3.8-1.1.9-6.5,2.5-13.5,2.3-3.5,0-7.2-1.4-8.2-3.2-1-1.8-3.1-3.3-3.7-2.4-.7.9-.4,3.3-.4,3.3,0,0-1.9.4-2.6-.1,0,0,.4-3.6.1-5.4-.3-1.8,1.2-5.6,1.2-5.6,0,0,3.4-.7,5.1,2.4,1,1.7,1.2,2.6,3.5,3.9,2.3,1.3,4.8,1.8,6.8,1.5.8,0,2.6-.8,2.5-2.4h0Z"/>
        </g>
        <path id="f140_Vector" class="st8" d="M389.4,81.3s-2,12.5,6.4,23.6c8.4,11.1,8.7,25,8.9,27.5s-.7,16.1-.2,20.9c.6,4.9,3.2,20.3,3.2,20.3,0,0,7.2,3,11.1-.3,0,0,4.7-46.7,4.6-51.2-.1-4.4-5.6-36.8-5.6-36.8l-28.5-4Z"/>
        <path id="f141_Vector" class="st17" d="M399.3,26.6l.6,9.3s1,1.4,3.9,1.2c2.9-.2,4.6-1.3,4.9-1.9l-.6-9.6-8.8,1.1Z"/>
        <path id="f142_Vector" class="st25" d="M392.5,35.9s-5.2,3.7.1,11.2c3.3,4.8,10.5,17.9,13.7,19.3,3.2,1.3,5.9-.6,6.4-2.9.5-2.3-11.3-22.3-11.3-22.3,0,0-4.1-8.8-8.9-5.3Z"/>
        <path id="f143_Vector" class="st15" d="M385.4,83.7c0,0,0-.1,0-.2.5-2.7,5.7-16.6,6-20.5.3-4.1-1.1-9.3-1.5-14.5-.4-5.2-2.2-9.1,2.1-13,1.6-2,3.6-2.6,5.7-2.9.6-.1,1.3-.2,2-.3h0c1.3-.1,2.8-.1,4.6-.1,1.6,0,3.1.2,4.6.4.1,0,.2,0,.3,0,2,.6,10.5,4,7.9,16.4,0,0,0,.9,0,.9-.7,3.1.9,4.9-.4,6.3,0,.1-.1.2-.2.4-1,2.2-1.8,4.2-2.1,5.4-1,4.5,9.8,23,9.2,24.5-.2.5.8,1.3-1.9,2.6-1.9,1.1-4.2,2.2-6.3,2.8,0,0,0,0,0,0-.1,0-.3,0-.4.1-1.5.4-6.2,1.4-14.9.9-10.7-.5-14.6-6-14.7-9.2,0,0,0,0,0-.1h0Z"/>
        <g class="st35">
          <g id="f144_Vector" class="st35">
            <path class="st17" d="M399.5,26.6l.3,5.5s1,1.7,3.9,1.5c2.8-.2,4.5-2,4.5-2l-.3-4.2-8.5-.7h0Z"/>
          </g>
        </g>
        <path id="f145_Vector" class="st17" d="M413.6,20.6c.3,4.6-3.4,8.6-8.3,8.9s-9-3.2-9.3-7.8l-.3-5.3c-.3-4.6,3.4-8.6,8.3-8.9s9,3.2,9.3,7.8l.3,5.3Z"/>
        <g id="f146_Group">
          <path id="f146_Vector" class="st17" d="M425.6,48.9s.4-.1.6-1.4c.2-1.3-.1-2.1-.2-3.6-.2-3,2.3-6.4,3.6-6.5,1.2,0-.8,3.2-.8,3.9.1,1.2.7-1,1.2-2.1.5-1,2.6,0,5,1.5,2.4,1.5,3.2,1.3,1.5,4.7-1,2.2-1.7,3.1-3.5,3.9-1.8.8-3.4,3-3.4,3l-4-3.4h0Z"/>
          <path id="f146_Vector_2" class="st17" d="M435.2,38s-.9,2.9-2.1,2.8c-1.3-.1-1-2-.5-3.2.5-1.2,1.7-4.9,2.7-4.5,1,.4.5,3.1,0,4.8h0Z"/>
          <path id="f146_Vector_3" class="st17" d="M437.1,39.4s-.9,2.9-2.1,2.8c-1.3-.1-1-2-.5-3.2.5-1.2,1.7-4.9,2.7-4.5,1,.4.5,3.1,0,4.8h0Z"/>
          <path id="f146_Vector_4" class="st17" d="M438.3,41.3s-.8,2.6-1.9,2.6c-1.1,0-.9-1.8-.5-2.8.5-1.1,1.6-4.4,2.4-4,.9.4.4,2.8,0,4.3h0Z"/>
          <path id="f146_Vector_5" class="st17" d="M433.1,38.3s-.9,2.9-2.1,2.8c-1.3-.1-1-2-.5-3.2.5-1.2,1.7-4.9,2.7-4.5,1,.4.5,3.1,0,4.8h0Z"/>
        </g>
        <path id="f147_Vector" class="st15" d="M415.3,40.1s2.9,3.9,3.8,10.4c.9,6.6,1.4,17.2-.6,19.5-2,2.2-6.7,1-8.4-.6-1.7-1.5-4.6-16.6-4.3-19.3.3-2.6,3.3-11.6,9.4-10.1h0Z"/>
        <path id="f148_Vector" class="st15" d="M432.8,49.6c-1.5,5.2-8.2,15.9-10.6,19.9-2.4,4-4.9,6.5-6.7,6.4-1.8-.1-6.3-.9-2.9-8.4,3.4-7.5,14.5-21.2,14.5-21.2,0,0,1-.1,3,.7,2,.8,2.8,2.6,2.8,2.6h0Z"/>
        <path id="f149_Vector" class="st33" d="M411.8,18.1s-1.9,1.4-2.7,5.9c-.5,2.5-2.2,23.8-10,28.5-6.3,3.8-21.6-1.6-21.5-9.3.1-6.4,9.6-8.9,10.8-30.7.3-5.4,3.9-11.4,8.6-11,0,0,2.8-1.7,8.1-1.7,9.1.1,13.8,7.6,12.9,11.6-1.2,5.7-3.5,6-6.1,6.5Z"/>
        <path id="f150_Vector" class="st17" d="M410.5,18.6s-1.8-3.2-4.5-1.8c-2.7,1.4.3,7.4,4.4,6.7v-4.9Z"/>
        <g id="f151_Group">
          <path id="f151_Vector" class="st14" d="M433.9,25.8l7.2,3.4c.8.4,1.2,1.4.8,2.2l-6.5,13c-.4.8-1.4,1.2-2.2.8l-7.2-3.4c-.8-.4-1.2-1.4-.8-2.2l6.5-13c.4-.8,1.4-1.2,2.2-.8Z"/>
          <path id="f151_Vector_2" class="st15" d="M433.4,26.8c-.3-.1-.7,0-.8.3l-2,4-4.5,9c-.1.3,0,.7.3.8l7.2,3.4c.3.1.7,0,.8-.3l6.5-13c.1-.3,0-.7-.3-.8l-7.2-3.4ZM433.9,25.8l7.2,3.4c.8.4,1.2,1.4.8,2.2l-6.5,13c-.4.8-1.4,1.2-2.2.8l-7.2-3.4c-.8-.4-1.2-1.4-.8-2.2l6.5-13c.4-.8,1.4-1.2,2.2-.8Z"/>
        </g>
        <path id="f152_Vector" class="st17" d="M430,44.5s0-2.9,0-3.9c-.2-1,1.7-4.5.4-4.3-1.3.2-2.5,2.7-2.9,3.3-.4.6-1,3.3-1,3.3l2.4,1.6h1.1Z"/>
        <path id="f153_Vector" class="st43" d="M417.4,75.3s-5.2.9-7.1-4.3c-1.9-5.2-4.2-21.1-4.2-21.1,0,0-.5,21.6,4.1,25,4.6,3.3,7.2.5,7.2.5Z"/>
        <g id="f154_Group">
          <path id="f154_Vector" class="st58" d="M457.5,15l-2.6-2.8-8.3,8,2.6,2.8,8.3-8Z"/>
          <path id="f154_Vector_2" class="st58" d="M463.6,26.5l-1.1-3.7-10.9,3.5,1.1,3.7,10.9-3.5Z"/>
          <path id="f154_Vector_3" class="st58" d="M439.8,15.9l3.6,1.4,4.1-10.9-3.6-1.4-4.1,10.9Z"/>
        </g>
      </g>
    </g>
  </g>
</svg>